<svg width="16" height="16" viewBox="0 0 16 16" fill="none" xmlns="http://www.w3.org/2000/svg">
<path d="M6.375 12.5C6.54076 12.5 6.69973 12.4407 6.81694 12.3352C6.93415 12.2298 7 12.0867 7 11.9375C7 11.7883 6.93415 11.6452 6.81694 11.5398C6.69973 11.4343 6.54076 11.375 6.375 11.375C6.20924 11.375 6.05027 11.4343 5.93306 11.5398C5.81585 11.6452 5.75 11.7883 5.75 11.9375C5.75 12.0867 5.81585 12.2298 5.93306 12.3352C6.05027 12.4407 6.20924 12.5 6.375 12.5ZM6.375 8.5625C6.54076 8.5625 6.69973 8.50324 6.81694 8.39775C6.93415 8.29226 7 8.14918 7 8C7 7.85082 6.93415 7.70774 6.81694 7.60225C6.69973 7.49676 6.54076 7.4375 6.375 7.4375C6.20924 7.4375 6.05027 7.49676 5.93306 7.60225C5.81585 7.70774 5.75 7.85082 5.75 8C5.75 8.14918 5.81585 8.29226 5.93306 8.39775C6.05027 8.50324 6.20924 8.5625 6.375 8.5625ZM6.375 4.625C6.54076 4.625 6.69973 4.56574 6.81694 4.46025C6.93415 4.35476 7 4.21168 7 4.0625C7 3.91332 6.93415 3.77024 6.81694 3.66475C6.69973 3.55926 6.54076 3.5 6.375 3.5C6.20924 3.5 6.05027 3.55926 5.93306 3.66475C5.81585 3.77024 5.75 3.91332 5.75 4.0625C5.75 4.21168 5.81585 4.35476 5.93306 4.46025C6.05027 4.56574 6.20924 4.625 6.375 4.625Z" fill="currentColor" stroke="currentColor"/>
<path d="M9.625 12.5C9.79076 12.5 9.94973 12.4407 10.0669 12.3352C10.1842 12.2298 10.25 12.0867 10.25 11.9375C10.25 11.7883 10.1842 11.6452 10.0669 11.5398C9.94973 11.4343 9.79076 11.375 9.625 11.375C9.45924 11.375 9.30027 11.4343 9.18306 11.5398C9.06585 11.6452 9 11.7883 9 11.9375C9 12.0867 9.06585 12.2298 9.18306 12.3352C9.30027 12.4407 9.45924 12.5 9.625 12.5ZM9.625 8.5625C9.79076 8.5625 9.94973 8.50324 10.0669 8.39775C10.1842 8.29226 10.25 8.14918 10.25 8C10.25 7.85082 10.1842 7.70774 10.0669 7.60225C9.94973 7.49676 9.79076 7.4375 9.625 7.4375C9.45924 7.4375 9.30027 7.49676 9.18306 7.60225C9.06585 7.70774 9 7.85082 9 8C9 8.14918 9.06585 8.29226 9.18306 8.39775C9.30027 8.50324 9.45924 8.5625 9.625 8.5625ZM9.625 4.625C9.79076 4.625 9.94973 4.56574 10.0669 4.46025C10.1842 4.35476 10.25 4.21168 10.25 4.0625C10.25 3.91332 10.1842 3.77024 10.0669 3.66475C9.94973 3.55926 9.79076 3.5 9.625 3.5C9.45924 3.5 9.30027 3.55926 9.18306 3.66475C9.06585 3.77024 9 3.91332 9 4.0625C9 4.21168 9.06585 4.35476 9.18306 4.46025C9.30027 4.56574 9.45924 4.625 9.625 4.625Z" fill="currentColor" stroke="currentColor"/>
</svg>
