<svg width="24" height="24" viewBox="0 0 24 24" fill="none" xmlns="http://www.w3.org/2000/svg">
<path d="M15.977 14.472H15.187L14.907 14.202C15.532 13.4759 15.9887 12.6207 16.2446 11.6976C16.5004 10.7744 16.5491 9.80612 16.387 8.86197C15.917 6.08197 13.597 3.86197 10.797 3.52197C9.81264 3.39744 8.81281 3.49974 7.87405 3.82106C6.93529 4.14238 6.08247 4.67419 5.38086 5.3758C4.67924 6.07742 4.14743 6.93023 3.82611 7.869C3.5048 8.80776 3.40249 9.80759 3.52703 10.792C3.86703 13.592 6.08703 15.912 8.86703 16.382C9.81118 16.544 10.7795 16.4954 11.7026 16.2395C12.6258 15.9837 13.481 15.5269 14.207 14.902L14.477 15.182V15.972L18.727 20.222C19.137 20.632 19.807 20.632 20.217 20.222C20.627 19.812 20.627 19.142 20.217 18.732L15.977 14.472ZM9.97703 14.472C7.48703 14.472 5.47703 12.462 5.47703 9.97197C5.47703 7.48197 7.48703 5.47197 9.97703 5.47197C12.467 5.47197 14.477 7.48197 14.477 9.97197C14.477 12.462 12.467 14.472 9.97703 14.472Z" fill="currentColor"/>
</svg>
