<svg width="24" height="24" viewBox="0 0 24 24" fill="currentColor" xmlns="http://www.w3.org/2000/svg">
<path d="M9.5 4H14.5C14.5 3.33696 14.2366 2.70107 13.7678 2.23223C13.2989 1.76339 12.663 1.5 12 1.5C11.337 1.5 10.7011 1.76339 10.2322 2.23223C9.76339 2.70107 9.5 3.33696 9.5 4ZM8 4C8 2.93913 8.42143 1.92172 9.17157 1.17157C9.92172 0.421427 10.9391 0 12 0C13.0609 0 14.0783 0.421427 14.8284 1.17157C15.5786 1.92172 16 2.93913 16 4H22.25C22.4489 4 22.6397 4.07902 22.7803 4.21967C22.921 4.36032 23 4.55109 23 4.75C23 4.94891 22.921 5.13968 22.7803 5.28033C22.6397 5.42098 22.4489 5.5 22.25 5.5H20.94L19.723 20.103C19.6345 21.1653 19.1499 22.1556 18.3655 22.8774C17.5811 23.5992 16.554 23.9999 15.488 24H8.512C7.44599 23.9999 6.41894 23.5992 5.6345 22.8774C4.85007 22.1556 4.36554 21.1653 4.277 20.103L3.06 5.5H1.75C1.55109 5.5 1.36032 5.42098 1.21967 5.28033C1.07902 5.13968 1 4.94891 1 4.75C1 4.55109 1.07902 4.36032 1.21967 4.21967C1.36032 4.07902 1.55109 4 1.75 4H8ZM10.5 9.75C10.5 9.55109 10.421 9.36032 10.2803 9.21967C10.1397 9.07902 9.94891 9 9.75 9C9.55109 9 9.36032 9.07902 9.21967 9.21967C9.07902 9.36032 9 9.55109 9 9.75V18.25C9 18.4489 9.07902 18.6397 9.21967 18.7803C9.36032 18.921 9.55109 19 9.75 19C9.94891 19 10.1397 18.921 10.2803 18.7803C10.421 18.6397 10.5 18.4489 10.5 18.25V9.75ZM14.25 9C14.0511 9 13.8603 9.07902 13.7197 9.21967C13.579 9.36032 13.5 9.55109 13.5 9.75V18.25C13.5 18.4489 13.579 18.6397 13.7197 18.7803C13.8603 18.921 14.0511 19 14.25 19C14.4489 19 14.6397 18.921 14.7803 18.7803C14.921 18.6397 15 18.4489 15 18.25V9.75C15 9.55109 14.921 9.36032 14.7803 9.21967C14.6397 9.07902 14.4489 9 14.25 9Z"/>
</svg>
