<svg width="287" height="234" viewBox="0 0 287 234" fill="none" xmlns="http://www.w3.org/2000/svg">
<path d="M224.14 30.8149C226.74 33.1674 229.246 35.706 232.018 37.8621C233.036 38.6544 230.186 36.4868 229.886 36.2462C229.824 36.1971 228.474 35.173 228.539 35.124C229.148 34.6671 233.936 36.6161 234.823 36.7175C237.38 37.0097 237.007 35.3879 235.855 33.8223C235.42 33.2303 233.445 32.1804 234.127 32.4533C235.743 33.0996 238.789 35.0217 240.524 34.361C242.854 33.4734 235.79 32.4309 233.297 32.4309C232.102 32.4309 232.51 33.2145 231.636 33.2388C230.041 33.2831 228.531 32.8348 226.968 32.8348" stroke="#F4E8FF" stroke-width="10" stroke-linecap="round"/>
<path d="M53.1677 77C43.4725 94.2495 38.6093 111.668 40.3474 131.747C42.3069 154.384 70.3648 159.82 88.1534 161.63C115.092 164.37 143.558 165.538 170.327 160.642C184.816 157.992 200.046 152.245 204 136.055" stroke="#B575FF" stroke-width="3" stroke-linecap="round"/>
<path d="M128.801 200.486C130.803 197.912 134.486 196.324 137.689 196.087C139.687 195.939 144.264 195.234 145.903 196.76C147.692 198.425 145.143 200.986 143.906 201.855C141.364 203.639 137.371 203.869 134.457 202.82C132.086 201.966 128.411 200.236 133.133 199.902C137.386 199.601 141.965 199.536 146.083 200.8C150.453 202.141 148.382 203.767 145.23 204.032C144.503 204.093 137.827 203.717 141.415 203.717C142.398 203.717 150.169 204.05 149.247 202.865C147.192 200.222 141.247 200.245 138.272 200.575C136.684 200.752 133.884 202.201 135.781 204.099C138.575 206.893 147.03 206.228 150.257 204.929C153.302 203.704 151.025 201.359 148.888 200.575C143.474 198.59 135.529 199.339 130.103 200.8C128.075 201.346 125.146 203.732 128.106 205.647C131.548 207.875 138.426 205.738 141.684 204.166C143.348 203.363 147.283 201.9 148.192 200.082" stroke="#F4E8FF" stroke-width="10" stroke-linecap="round"/>
<path d="M31.8467 176.247C30.9926 176.247 31.0388 176.495 31.0388 177.347C31.0388 180.349 31.3569 182.754 33.9339 184.663C35.6364 185.924 44.774 188.957 44.774 184.327C44.774 180.243 34.3089 179.864 32.1609 182.352C27.9134 187.27 35.8143 190.889 39.9263 189.488C42.0239 188.774 44.6497 186.152 44.1007 183.721C43.3166 180.248 37.3253 178.627 34.3379 178.11C32.8275 177.848 30.3377 177.361 29.1984 178.761C28.3262 179.832 28.2094 183.165 28.8842 184.327C31.1399 188.208 39.7435 188.651 43.6743 188.748C45.379 188.79 50.3019 189.479 51.3948 187.536C53.309 184.133 47.7267 183.923 45.986 183.923" stroke="#F4E8FF" stroke-width="10" stroke-linecap="round"/>
<path d="M206.525 82C212.432 82 218.392 86.5303 223.503 89.1188C235.279 95.0824 246.906 103.623 252.708 116.139C256.356 124.008 255.793 135.02 249.987 141.861C245.098 147.621 234.475 145.675 227.911 145.715C219.167 145.769 211.205 145.65 203.651 140.563C197.892 136.684 189.982 131.516 185.561 125.932C183.312 123.091 182.928 119.657 181 116.689" stroke="#B575FF" stroke-width="3" stroke-linecap="round"/>
<path d="M196 77.6495C185.281 77.6495 174.143 72.4916 163.848 69.7514C150.925 66.312 137.758 62.9212 124.618 60.3299C107.348 56.924 89.0222 56 71.4669 56C64.5355 56 56.3332 58.748 49.8525 61.4926C41.5961 64.989 32.2959 71.5686 25.5458 77.6495C15.2156 86.9556 7.4009 93.4074 7.00815 108.761C6.8202 116.108 9.87482 121.338 17.1616 123.113C23.7104 124.709 30.0417 126 36.7761 126" stroke="#B575FF" stroke-width="3" stroke-linecap="round"/>
<path d="M76.0439 56.8563C84.0634 55.871 92.0395 56.3748 100.081 56.6977C108.468 57.0345 116.9 56.4488 125.274 57.0148C131.082 57.4074 136.777 58.5795 142.609 58.8381C150.197 59.1747 157.86 59.0926 165.414 60.0273C173.926 61.0805 181.863 64.1826 189.143 68.7474C192.938 71.127 196.401 73.8142 199.852 76.6748C200.416 77.1419 201.365 79.1832 200.854 78.6567C196.273 73.9436 189.74 71.4676 183.673 68.9852C168.12 62.6216 151.94 58.3913 135.752 54.161C119.453 49.9015 104.581 48.8962 87.8315 49.0082C67.2223 49.1459 46.3388 56.2153 28.8165 67.1619C23.0646 70.7553 16.0759 73.8629 12.7916 80.3214C9.69741 86.406 8.02708 91.2837 8.09194 98.1581C8.21869 111.591 19.2793 112.507 30.2033 112.507C32.9719 112.507 40.0148 110.746 36.9831 115.598C32.868 122.185 23.9 126.726 16.2585 125.904C11.9191 125.438 4.20183 123.023 2.85302 118.056C0.0988928 107.914 4.40527 101.509 10.1721 93.9566" stroke="#B575FF" stroke-width="3" stroke-linecap="round"/>
<path d="M270.598 137.465C271.016 139.672 271.48 141.141 273.919 141.415C276.512 141.707 278.081 140.639 279.216 138.318C280.484 135.726 280.322 133.066 276.927 133.066C274.912 133.066 275.445 137.851 275.445 139.26C275.445 139.87 274.569 137.442 273.426 137.061" stroke="#F4E8FF" stroke-width="10" stroke-linecap="round"/>
<path d="M39.8733 160C36.576 161.934 28.4034 165.254 26.851 169.49C25.1281 174.191 24 180.451 24 185.48C24 194.615 38.4927 195.283 44.381 194.93C54.1039 194.346 63.2474 192.02 69 183.685" stroke="#B575FF" stroke-width="3" stroke-linecap="round"/>
<path d="M155.754 132.536C155.754 137.639 165.674 139.48 164.964 132.006C164.505 127.181 153.664 124.501 149.636 126.884C146.489 128.745 148.383 132.762 151.117 133.595" stroke="#EBDAFF" stroke-width="26" stroke-linecap="round"/>
<path d="M66.8161 124.419C58.8713 125.726 68.9408 137.101 66.6528 126.567C65.0763 119.308 61.0907 122.386 58 124.419" stroke="#EBDAFF" stroke-width="26" stroke-linecap="round"/>
<path d="M129.162 184.834C127.254 191.226 125 196.989 125 203.712C125 207.967 126.348 208.438 130.78 209.952C137.148 212.127 146.68 213.281 152.746 209.715C157.578 206.873 162.232 202.912 166.58 199.367C172.159 194.819 174.306 187.894 177.023 181.398C177.48 180.304 178.417 176.874 179.721 176.461C183.182 175.363 187.32 175.607 190.896 174.802C200.109 172.73 209.413 168.95 217.909 164.771C227.036 160.281 237.142 156.711 245 150" stroke="#B575FF" stroke-width="3" stroke-linecap="round"/>
<path d="M247 157.769C252.212 157.769 258.305 158.647 263.318 156.978C270.275 154.661 278.046 147.627 280.331 140.447C283.848 129.399 272.678 130.006 265.792 130.006" stroke="#B575FF" stroke-width="3" stroke-linecap="round"/>
<path d="M233.372 83.0942C232.678 70.8555 233.38 55.0225 227.747 43.7251C224.865 37.945 220.961 34.0024 216.573 29.5107C213.642 26.5108 215.024 27.0352 218.929 27.0352C227.804 27.0352 236.91 26.7093 244.926 31.3873C253.783 36.5571 258 46.2544 258 56.542C258 64.1659 256.823 70.9347 254.199 78.0234C252.542 82.5004 249.101 86.705 247.738 91" stroke="#B575FF" stroke-width="3" stroke-linecap="round"/>
<path d="M73 134C73 139.551 73.8234 147.858 80.5136 147.858C85.2393 147.858 90.413 147.947 95.0713 147.181C97.8344 146.726 99.2012 144.233 100.442 141.791C102.325 138.088 101.866 140.227 102.086 143.116C102.284 145.708 104.639 147.318 106.782 148.104C109.929 149.26 113.61 148.967 116.878 148.967C119.319 148.967 121.722 149.278 123.658 147.427C125.537 145.631 127.002 143.438 129 141.761" stroke="#B575FF" stroke-width="3" stroke-linecap="round"/>
<path d="M133.499 142C135.199 142.073 138.904 141.959 138.998 144.654C139.038 145.809 138.542 146.265 137.47 146.414C134.73 146.794 131.769 147 129 147" stroke="#B575FF" stroke-width="3" stroke-linecap="round"/>
<path d="M70.887 138.846C60.8199 138.846 49.9998 138.273 40.045 136.484C38.3236 136.175 19.2095 132.773 21.1363 137.448C21.6497 138.693 25.2772 138.878 26.3246 139.281C28.3068 140.045 30.1252 140.791 32.2336 141.084C37.9879 141.885 43.7141 143.08 49.4705 143.881C54.4407 144.573 59.4009 144.441 64.4015 144.441C67.5818 144.441 70.9967 143.921 74 145" stroke="#B575FF" stroke-width="3" stroke-linecap="round"/>
<path d="M15.6643 140C13.1917 144.834 10.4766 148.832 9.64006 154.211C9.45852 155.378 8.19576 160 9.81468 160C21.3494 160 31.7467 150.955 41.7405 146.199C42.8988 145.648 43.7931 144.615 45 144.211" stroke="#B575FF" stroke-width="3" stroke-linecap="round"/>
<path d="M21.6657 136C19.5749 136 17.6553 135.981 15.6401 136.525C12.4061 137.399 14.552 139.18 16.9564 139.483C24.6489 140.452 32.2363 140.185 39.9766 140.865C42.1792 141.059 44.8654 140.535 46.9676 141.28C50.2103 142.429 53.2424 142.599 56.708 142.856C59.9099 143.093 63.1518 142.966 66.3607 142.966C69.5344 142.966 60.0228 142.64 56.8543 142.469C50.0811 142.103 43.2759 141.709 36.5251 141.086C34.1228 140.865 31.6671 141.213 29.3002 140.727C27.8037 140.42 26.1799 140.554 24.7371 140.008C23.8408 139.67 26.6676 139.981 27.6329 139.981C31.221 139.981 34.809 139.981 38.3971 139.981C42.541 139.981 46.6848 139.981 50.8286 139.981C51.6661 139.981 52.3554 139.77 52.7299 140.478" stroke="#B575FF" stroke-width="3" stroke-linecap="round"/>
<path d="M85.8979 106C84.5508 108.62 83.6255 111.089 83.2279 114.061C82.9506 116.134 84.8964 116.886 86.4771 117.276C89.4544 118.011 91.6282 116.26 91.9441 112.865C92.2611 109.457 91.2677 107.508 88.0027 107.305C85.9624 107.178 84.3807 108.166 83.7224 110.318C83.2131 111.982 82.5266 115.448 83.4681 117.058C84.0609 118.072 85.8777 118.314 86.689 117.555C88.2432 116.103 89.7037 111.996 88.7656 109.774C87.9181 107.767 86.7438 112.432 86.7172 112.834C86.5591 115.225 88.6924 114.553 89.5425 113.082C90.2325 111.888 91.0293 108.768 90.5597 107.367C90.157 106.165 89.4864 108.689 89.4719 108.904C89.4451 109.303 89.6824 110.382 89.147 110.256C88.0131 109.988 87.224 110.541 86.4064 111.312" stroke="#B575FF" stroke-width="3" stroke-linecap="round"/>
<path d="M119.35 109.228C116.231 110.672 114.802 118.81 117.211 121.366C120.391 124.741 126.242 120.084 125.992 116.055C125.904 114.623 124.624 113.531 123.511 112.882C121.839 111.906 120.574 113.702 120.034 115.142C119.38 116.887 118.141 120.919 119.945 122.387C122.707 124.636 125.062 120.132 125.383 117.96C125.779 115.281 126.144 110.929 123.303 109.414C121.2 108.292 118.633 109.564 118.073 111.86C117.677 113.479 117.215 117.657 119.885 117.247C121.945 116.932 119.982 113.284 117.865 116.226C117.132 117.243 117.278 118.142 118.518 118.47C119.994 118.861 121.267 118.241 122.382 117.263C123.051 116.676 124.102 115.711 124.343 114.77C124.435 114.412 123.82 115.17 123.793 115.235C122.736 117.806 127.2 116.195 125.502 116.195" stroke="#B575FF" stroke-width="3" stroke-linecap="round"/>
<path d="M120 99C119.997 98.9994 123.731 95.8278 124.472 95.25C125.198 94.6841 126.17 94.3294 127 94" stroke="#B575FF" stroke-width="3" stroke-linecap="round"/>
<path d="M86.2244 109.607C86.0263 109.9 86.4798 109.918 86.6067 109.781C86.6762 109.707 87.1366 109.149 86.9599 109.033C86.8683 108.973 86.6503 109 86.5651 109.071C86.3536 109.248 86.5477 109.419 86.507 109.312C86.2669 108.68 86.0208 109.809 86 110" stroke="white" stroke-width="3" stroke-linecap="round"/>
<path d="M119.121 112.166C118.546 112.166 117.794 112.243 118.053 113.496C118.292 114.653 119.369 113.588 119.225 112.6C119.17 112.224 118.401 113.449 118.921 113.893C119.52 114.406 120.526 112.261 119.668 112" stroke="white" stroke-width="3" stroke-linecap="round"/>
<path d="M152.018 35C151.587 26.7707 159.124 17.6932 168.168 19.1564C170.698 19.5656 171.383 24.0424 170.811 26.0732C170.184 28.3028 168.659 29.5133 167.346 31.2756" stroke="#B575FF" stroke-width="2" stroke-linecap="round"/>
<path d="M193 25.9149C193 23.4539 196.238 23.8308 197.74 24.5012C201.21 26.0511 196.588 31.059 194.939 32" stroke="#B575FF" stroke-width="2" stroke-linecap="round"/>
<path d="M175 3.88714C175.039 3.02367 175.063 1.34114 176.375 1.09195C176.894 0.993389 178.511 0.85955 178.728 1.3793C179.976 4.36645 176.577 7.3677 175.55 10" stroke="#B575FF" stroke-width="2" stroke-linecap="round"/>
<path d="M114.343 211.633C111.594 211.633 83.1655 210.245 84.3191 214.219C84.6603 215.394 89.9916 215.579 91.4775 215.619C97.8541 215.791 104.127 214.518 110.138 213.59C113.93 213.005 117.933 212.511 121.571 211.974C127.499 211.099 124.61 214.269 128.138 215.332C133.191 216.855 151.044 217.32 145.2 217.451C132.809 217.729 120.47 218.097 108.053 218.097C104.662 218.097 100.815 217.829 97.4891 218.259C96.8883 218.336 94.894 218.271 94.4659 218.492C94.0138 218.726 96.1872 219.038 96.3424 219.067C101.182 219.971 106.85 220.055 111.91 220.162C121.12 220.357 130.338 219.693 139.432 218.995C145.426 218.535 151.305 218.495 157.328 218.259C171.787 217.693 192.685 218.546 200.313 210.664C201.392 209.549 204.993 209.211 207.263 208.904C216.867 207.606 227.161 206.835 237.043 206.301C247.006 205.762 257.038 205.622 267.032 205.241C272.239 205.043 255.004 207.398 259.901 208.832C263.597 209.914 274.135 208.701 273.322 208.832C260.292 210.936 246.315 211.625 232.804 212.441C220.929 213.158 209.032 214.542 197.046 214.542C196.369 214.542 173.483 210.228 175.787 211.31C177.23 211.988 199.007 216.987 200.73 217.271C205.915 218.125 210.899 219.183 216.332 219.534C226.768 220.208 232.626 220.036 243.124 220.036C252.167 220.036 246.708 217.128 259.901 216.661C265.413 215.603 267.081 215.769 270.437 213.411C291.773 198.418 210.931 199.292 196.004 204.2C194.194 204.795 179.584 203.506 177.378 203.506C174.512 203.506 203.788 205.424 203.788 206.48C203.788 208.294 203.162 210.015 203.162 211.813C203.162 213.259 203.383 215.252 201.494 216.481C200.192 217.329 197.881 217.545 196.004 217.846C191.963 218.494 188.144 219.417 184.085 220.036C176.535 221.187 169.286 221.827 161.393 222.227C152.315 222.687 143.454 222.902 134.324 223.089C127.593 223.226 121.259 222.299 114.655 222.299C113.741 222.299 112.991 222.247 114.482 222.317C117.794 222.472 121.092 222.935 124.35 223.268C134.898 224.346 145.828 223.915 156.529 223.915C175.751 223.915 193.951 223.904 212.475 221.078C217.307 220.341 222.127 219.598 226.931 218.815C232.022 217.986 238.397 217.351 242.777 215.691C242.78 215.69 243.795 215.309 243.124 215.26C237.841 214.879 230.53 216.146 225.611 216.661C210.657 218.227 195.795 219.986 180.645 220.988C163.732 222.106 146.64 222.368 129.632 222.694C121.067 222.858 108.036 223.22 101.833 219.318C99.428 217.805 98.4078 216.964 101.242 215.206C103.888 213.565 107.325 212.298 110.937 211.31C113.988 210.476 121.821 207.572 124.281 206.301C124.69 206.089 118.835 208.401 118.652 208.401C114.644 208.401 110.636 208.401 106.628 208.401C103.643 208.401 101.323 208.65 98.4969 209.227C92.292 210.495 85.509 212.283 82.7901 215.494C79.4344 219.457 87.4639 221.598 93.8057 222.119C103.793 222.94 114.201 222.896 124.281 223.196C135.927 223.544 147.418 223.915 159.1 223.915C165.19 223.915 171.288 223.959 177.378 223.915C184.159 223.865 190.809 223.145 197.568 222.945C212.62 222.501 226.83 219.259 241.456 217.648C243.517 217.421 249.665 216.95 247.572 216.822C241.656 216.463 235.179 216.913 229.294 217.128C218.323 217.527 207.265 219.067 196.282 219.067" stroke="#EBDAFF" stroke-opacity="0.5" stroke-width="20" stroke-linecap="round"/>
<path d="M193 76.7932C197.87 71.7784 208.856 71.5395 215.389 72.3598C218.686 72.7739 223.011 76.5927 223.139 80.1429C223.189 81.5252 222.8 82.3824 224 83" stroke="#B575FF" stroke-width="2" stroke-linecap="round"/>
<path d="M18.4102 143.974C17.6006 145.665 16.8729 147.364 16.1941 149.115C16.0946 149.372 15.3716 151.938 15.0861 151.998C14.6869 152.081 15.8014 149.431 15.8775 149.281C16.4528 148.146 17.1608 147.262 18.0232 146.361C18.7678 145.584 19.4513 145.22 20.4679 144.984C21.4689 144.752 20.1795 148.542 19.8524 149.079C19.4176 149.792 20.3282 149.505 20.6966 149.372C22.8876 148.586 25.0032 147.259 27.1337 146.288C30.0962 144.938 32.8169 142.985 35.91 141.991C36.1992 141.899 36.2133 141.661 36.5608 141.661C38.7442 141.661 32.1894 141.571 30.0181 141.33C27.1925 141.018 24.4123 141 21.576 141" stroke="#B575FF" stroke-width="12" stroke-linecap="round"/>
<path d="M39.8155 138.903C32.1931 138.903 24.6843 138.025 17.0615 138.025C15.4336 138.025 14.6403 137.708 13.8292 139.325C11.8774 143.217 9.34456 146.902 7.6847 150.929C6.44506 153.937 4.68844 156.811 3.74835 159.933C3.70839 160.066 2.46829 163.216 3.2683 162.988C7.98983 161.642 12.2744 157.976 16.4215 155.415C22.7632 151.499 29.6833 149.249 36.4232 146.216C38.5332 145.267 40.5153 144.142 42.6318 143.226C43.3682 142.907 44.4721 142.364 45 141.828" stroke="#B575FF" stroke-width="5" stroke-linecap="round"/>
<path d="M9.17038 138C7.80394 138 7.48508 138.275 9.01924 138.582C10.9261 138.962 13.0725 139.095 15 138.931" stroke="#B575FF" stroke-width="5" stroke-linecap="round"/>
<path d="M74.1423 53.6805C63.8198 53.6805 54.0922 56.6335 44.9888 61.332C41.9777 62.8861 38.8172 64.3719 35.9913 66.2558C32.806 68.3794 29.9236 70.9561 26.7103 73.0571C24.4375 74.5432 23.1488 77.2045 21.5385 79.3271C20.0385 81.3044 18.1638 83.1301 16.4553 84.924C12.047 89.5526 8.06581 95.6731 6.87323 102.033C5.94851 106.965 5.80018 114.514 9.93736 118.204C12.4122 120.412 16.7024 120.923 19.8382 121.446C22.9378 121.962 27.3557 122.604 30.3589 121.516C32.2385 120.835 34.2698 120.15 36.0267 119.196C37.3365 118.485 38.5049 117.514 37.9396 119.533C37.1769 122.256 37.1602 124.871 37.1602 127.68C37.1602 128.758 36.8603 130.223 37.4791 131.152" stroke="#B575FF" stroke-width="5" stroke-linecap="round"/>
<path d="M42.2611 149.961C43.2154 150.916 44.2475 152.092 45.4492 152.76C45.8725 152.995 46.9093 153.323 45.9452 153.716C39.7115 156.261 32.8738 161.049 30.0401 167.425C28.2768 171.392 24.8154 175.22 24.7265 179.752C24.6616 183.066 25.1352 185.12 27.5604 187.546C33.6777 193.663 42.4961 192.67 50.4262 191.849C57.2381 191.145 65.1511 189.62 70.5821 185.19C72.5732 183.566 74.3954 181.589 76.2145 179.77C76.808 179.177 77.9311 178.409 78.2867 177.698" stroke="#B575FF" stroke-width="5" stroke-linecap="round"/>
<path d="M127.702 183.436C126.168 186.505 125.67 189.611 124.514 192.788C123.42 195.796 123.141 200.901 124.833 203.681C129.681 211.646 139.276 210.535 147.628 210.535C154.988 210.535 161.689 207 166.278 201.361C172.082 194.231 172.017 182.936 172.017 174.191" stroke="#B575FF" stroke-width="5" stroke-linecap="round"/>
<path d="M82.4314 175.466C94.3572 174.808 106.606 174.403 118.138 177.698" stroke="#B575FF" stroke-width="5" stroke-linecap="round"/>
<path d="M175.524 177.379C183.29 175.049 190.573 171.004 198.301 168.47C204.027 166.593 209.873 165.008 215.552 163.015C225.566 159.501 234.643 154.338 245.343 153.149" stroke="#B575FF" stroke-width="5" stroke-linecap="round"/>
<path d="M246.938 155.062C253.057 155.651 258.716 157.294 264.915 157.294C268.792 157.294 271.74 156.683 275.312 155.222C282.321 152.354 283.92 145.363 283.92 138.449C283.92 135.597 284.227 134.05 282.148 131.931C281.05 130.811 279.938 129.7 278.819 128.601C277.323 127.133 275.575 126.542 273.718 125.661C270.016 123.904 265.08 123.294 261.001 123.181C260.267 123.161 256.335 122.24 255.864 123.181" stroke="#B575FF" stroke-width="5" stroke-linecap="round"/>
<path d="M227.864 87.5821C232.348 79.6914 233.076 70.619 231.943 61.6817C231.299 56.6002 230.377 50.8219 227.864 46.2988C226.608 44.0369 223.943 41.8912 222.114 40.008C220.039 37.8721 217.091 33.6729 217.248 30.5227C217.423 27.0389 222.216 26.1599 224.719 25.2149C229.255 23.5021 231.862 23.2882 236.44 24.3056C240.506 25.2092 244.253 26.7051 247.744 28.9746C250.269 30.6159 254.047 34.0246 255.018 36.9364C256.629 41.7706 258.488 46.7278 259.466 51.7541C260.243 55.7521 260.468 61.7674 259.048 65.7118C256.354 73.195 252.973 80.1663 247.302 85.8373C245.189 87.95 243.479 89.7391 241.134 91.5629C239.67 92.7011 237.144 93.3494 236.268 95.1015" stroke="#B575FF" stroke-width="5" stroke-linecap="round"/>
<path d="M236.298 93.7974C247.268 98.0163 253.805 108.229 257.347 118.856" stroke="#B575FF" stroke-width="5" stroke-linecap="round"/>
<path d="M81.6294 51.4147C91.3014 51.4147 100.886 52.2886 110.566 52.2886C116.765 52.2886 122.785 52.7864 128.942 53.1382C135.002 53.4845 141.411 54.1472 147.27 55.7843C155.987 58.2197 165.221 58.0549 174.167 59.0614C180.383 59.7607 186.087 62.1194 191.961 64.1107C196.597 65.682 200.528 68.5643 204.949 70.5437C207.519 71.6946 210.112 72.8499 212.377 74.5735C214.998 76.5679 217.326 78.4298 219.514 80.9094C220.519 82.0488 223.463 83.3126 224.952 83.3126" stroke="#B575FF" stroke-width="5" stroke-linecap="round"/>
<path d="M98.1909 137.971C98.9839 138.852 101.237 138.745 102.263 138.373C102.533 138.275 103.682 137.713 102.942 137.342C102.647 137.195 101.136 137.064 101.408 137.744C101.513 138.007 101.55 137.444 101.534 137.393C101.418 137.02 100.986 136.971 100.679 136.84" stroke="#EBDAFF" stroke-width="9" stroke-linecap="round"/>
<path d="M98.7128 134.622C98.7654 135.148 100.649 135.437 100.209 135.144C99.8035 134.874 99.1033 134.921 98.6538 135.056C98.1094 135.219 98.1036 135.813 98.7128 135.508" stroke="#DEC3FD" stroke-width="4" stroke-linecap="round"/>
<path d="M145.891 125.763C145.928 127.399 146.377 129.005 146.377 130.629" stroke="#DEC3FD" stroke-width="4" stroke-linecap="round"/>
<path d="M154.405 124.79C154.736 125.747 154.848 127.401 155.378 128.196" stroke="#DEC3FD" stroke-width="4" stroke-linecap="round"/>
<path d="M54.9069 121.141V123.33" stroke="#DEC3FD" stroke-width="4" stroke-linecap="round"/>
<path d="M66.0974 120.898V124.304" stroke="#DEC3FD" stroke-width="4" stroke-linecap="round"/>
</svg>
