<svg width="20" height="20" viewBox="0 0 20 20" fill="none" xmlns="http://www.w3.org/2000/svg">
<g clip-path="url(#clip0_1042_1615)">
<path fill-rule="evenodd" clip-rule="evenodd" d="M10 20C11.3132 20 12.6136 19.7413 13.8268 19.2388C15.0401 18.7362 16.1425 17.9997 17.0711 17.0711C17.9997 16.1425 18.7362 15.0401 19.2388 13.8268C19.7413 12.6136 20 11.3132 20 10C20 8.68678 19.7413 7.38642 19.2388 6.17317C18.7362 4.95991 17.9997 3.85752 17.0711 2.92893C16.1425 2.00035 15.0401 1.26375 13.8268 0.761205C12.6136 0.258658 11.3132 -1.95685e-08 10 0C7.34784 3.95203e-08 4.8043 1.05357 2.92893 2.92893C1.05357 4.8043 0 7.34784 0 10C0 12.6522 1.05357 15.1957 2.92893 17.0711C4.8043 18.9464 7.34784 20 10 20ZM15.2978 7.37778C15.3953 7.26627 15.4696 7.13638 15.5162 6.99574C15.5628 6.85511 15.5808 6.70657 15.5692 6.55887C15.5575 6.41117 15.5165 6.26729 15.4484 6.1357C15.3804 6.0041 15.2866 5.88745 15.1728 5.7926C15.059 5.69775 14.9274 5.62663 14.7857 5.5834C14.644 5.54018 14.495 5.52574 14.3476 5.54092C14.2003 5.5561 14.0574 5.60061 13.9275 5.67181C13.7976 5.74302 13.6832 5.83949 13.5911 5.95556L9.59333 10.7522C9.20778 11.2144 8.99111 11.4711 8.81889 11.6278L8.81222 11.6344L8.80444 11.6289C8.61778 11.4878 8.37889 11.2522 7.95445 10.8267L6.34111 9.21445C6.13155 9.01205 5.85088 8.90005 5.55956 8.90259C5.26823 8.90512 4.98954 9.02197 4.78354 9.22798C4.57753 9.43399 4.46067 9.71267 4.45814 10.004C4.45561 10.2953 4.5676 10.576 4.77 10.7856L6.38222 12.3978L6.42778 12.4433C6.79111 12.8067 7.13889 13.1556 7.46445 13.4011C7.82778 13.6767 8.30444 13.9344 8.91444 13.9078C9.52556 13.88 9.97667 13.5789 10.3144 13.2722C10.6144 12.9978 10.9311 12.6189 11.2589 12.2244L11.3 12.1756L15.2978 7.37778Z" fill="currentColor"/>
</g>
<defs>
<clipPath id="clip0_1042_1615">
<rect width="20" height="20" rx="8" fill="white"/>
</clipPath>
</defs>
</svg>
