<svg width="18" height="18" viewBox="0 0 18 18" fill="none" xmlns="http://www.w3.org/2000/svg">
<path d="M12.214 2.98152L13.616 1.58052C13.9877 1.20882 14.4918 1 15.0175 1C15.5432 1 16.0473 1.20882 16.419 1.58052C16.7907 1.95222 16.9995 2.45636 16.9995 2.98202C16.9995 3.50768 16.7907 4.01182 16.419 4.38352L15.018 5.78552M12.214 2.98152L3.98 11.2155C2.935 12.2615 2.412 12.7835 2.056 13.4205C1.7 14.0575 1.342 15.5605 1 16.9995C2.438 16.6575 3.942 16.2995 4.579 15.9435C5.216 15.5875 5.739 15.0645 6.784 14.0195L15.018 5.78552M12.214 2.98152L15.018 5.78552M8 16.9995H14" stroke="currentColor" stroke-width="2" stroke-linecap="round" stroke-linejoin="round"/>
</svg>
