<?xml version="1.0" encoding="utf-8"?>
<!DOCTYPE svg PUBLIC "-//W3C//DTD SVG 1.1//EN" "http://www.w3.org/Graphics/SVG/1.1/DTD/svg11.dtd">
<!-- Generated by SVG sprite (visit: https:/socode4.com/app/en/) -->
<svg width="0" height="0">
<symbol width="36" height="36" viewbox="0 0 36 36" fill="none" xmlns="http://www.w3.org/2000/svg" id="bank1_woori">
<g clip-path="url(#clip0_4453_11809)">
<path d="M17.1843 0.018978C7.25398 0.466645 -0.433352 8.87998 0.0189811 18.8123C0.471314 28.7446 8.88265 36.428 18.8143 35.9813C28.746 35.5346 36.432 27.1146 35.981 17.185C35.53 7.25531 27.118 -0.433355 17.1843 0.018978Z" fill="#0062AC"></path>
<path d="M28.7992 18C28.7992 23.9666 23.9639 28.8 17.9992 28.8C12.0346 28.8 7.19922 23.9666 7.19922 18C7.19922 12.0333 12.0346 7.19995 17.9992 7.19995C23.9639 7.19995 28.7992 12.0353 28.7992 18Z" fill="white"></path>
<path d="M17.9991 28.2581C23.6855 28.2581 28.2951 23.6484 28.2951 17.9621C28.2951 12.2757 23.6855 7.66675 17.9991 7.66675C12.3128 7.66675 7.70312 12.2757 7.70312 17.9621C7.70312 23.6484 12.3128 28.2581 17.9991 28.2581Z" fill="#007BC6"></path>
<mask id="mask0_4453_11809" style="mask-type:luminance" maskunits="userSpaceOnUse" x="7" y="7" width="22" height="22">
<path d="M17.9991 28.258C23.6854 28.258 28.2951 23.6483 28.2951 17.962C28.2951 12.2757 23.6854 7.66602 17.9991 7.66602C12.3128 7.66602 7.70312 12.2757 7.70312 17.962C7.70312 23.6483 12.3128 28.258 17.9991 28.258Z" fill="white"></path>
</mask>
<g mask="url(#mask0_4453_11809)">
<path d="M18.0442 22.93C22.5665 22.93 26.4422 24.1914 28.1052 25.9827C28.6769 24.6681 28.971 23.2496 28.9692 21.816C28.9692 15.9077 24.0732 11.124 18.0442 11.124C12.0152 11.124 7.11719 15.907 7.11719 21.8164C7.11589 23.2499 7.41001 24.6682 7.98119 25.983C9.64086 24.1924 13.5195 22.93 18.0442 22.93Z" fill="#007BC6"></path>
<path d="M18.0439 22.9408C22.5535 22.9408 26.4255 24.1924 28.0815 25.9691C28.652 24.6658 28.9462 23.2584 28.9455 21.8358C28.9455 15.9741 24.0639 11.2151 18.0492 11.2151C12.0345 11.2151 7.14454 15.9748 7.14454 21.8371C7.14303 23.2598 7.43725 24.6674 8.00854 25.9704C9.65954 24.1924 13.5312 22.9408 18.0439 22.9408Z" fill="#007DC7"></path>
<path d="M18.0411 22.9511C22.5411 22.9511 26.3981 24.1951 28.0491 25.9564C28.6171 24.6643 28.9096 23.2679 28.9081 21.8564C28.9081 16.0414 24.0387 11.3054 18.0361 11.3054C12.0334 11.3054 7.16407 16.0424 7.16407 21.8581C7.16186 23.2702 7.45621 24.667 8.02808 25.9581C9.67974 24.1924 13.5404 22.9511 18.0411 22.9511Z" fill="#007FC9"></path>
<path d="M18.0366 22.9623C22.5252 22.9623 26.3736 24.1956 28.0202 25.9416C28.5884 24.6613 28.8805 23.2757 28.8776 21.8749C28.8776 16.1083 24.0212 11.3953 18.0366 11.3953C12.0519 11.3953 7.19923 16.1103 7.19923 21.8779C7.19723 23.2774 7.48884 24.6618 8.05523 25.9416C9.69923 24.1923 13.5496 22.9623 18.0366 22.9623Z" fill="#0080CA"></path>
<path d="M18.037 22.9741C22.514 22.9741 26.3517 24.1981 27.994 25.9298C28.5606 24.6608 28.8521 23.2862 28.8493 21.8964C28.8493 16.1781 24.006 11.4888 18.037 11.4888C12.068 11.4888 7.22266 16.1794 7.22266 21.9001C7.2211 23.2898 7.51279 24.6642 8.07866 25.9334C9.71966 24.1924 13.56 22.9741 18.037 22.9741Z" fill="#0081CB"></path>
<path d="M18.0377 22.9855C22.5017 22.9855 26.3293 24.1958 27.968 25.9188C28.5318 24.6607 28.8226 23.2974 28.8213 21.9188C28.8213 16.2475 23.99 11.5818 18.0377 11.5818C12.0853 11.5818 7.25 16.2485 7.25 21.9218C7.24873 23.3005 7.53979 24.6638 8.104 25.9218C9.73967 24.1958 13.5717 22.9855 18.0377 22.9855Z" fill="#0083CC"></path>
<path d="M18.035 22.9971C22.4867 22.9971 26.3057 24.1995 27.9394 25.9045C28.5028 24.6581 28.793 23.3056 28.7904 21.9378C28.7904 16.3138 23.9737 11.6711 18.035 11.6711C12.0964 11.6711 7.27735 16.3138 7.27735 21.9378C7.27538 23.3055 7.56552 24.6579 8.12835 25.9045C9.75935 24.2001 13.581 22.9971 18.035 22.9971Z" fill="#0085CE"></path>
<path d="M18.0359 23.0099C22.4776 23.0099 26.2873 24.1993 27.9159 25.8899C28.4776 24.6561 28.7672 23.3159 28.7649 21.9603C28.7646 16.3836 23.9593 11.7666 18.0359 11.7666C12.1126 11.7666 7.30861 16.3836 7.30861 21.9603C7.30597 23.316 7.59495 24.6564 8.15595 25.8906C9.78228 24.1999 13.5919 23.0099 18.0359 23.0099Z" fill="#0087CF"></path>
<path d="M18.032 23.02C22.463 23.02 26.2624 24.1994 27.888 25.8784C28.4472 24.6543 28.7357 23.3241 28.734 21.9784C28.734 16.4487 23.9404 11.853 18.032 11.853C12.1237 11.853 7.33204 16.4487 7.33204 21.979C7.33039 23.3247 7.61895 24.655 8.17804 25.879C9.80104 24.2 13.601 23.02 18.032 23.02Z" fill="#0089D1"></path>
<path d="M18.0297 23.0333C22.4484 23.0333 26.2377 24.2019 27.86 25.8666C28.4185 24.6541 28.7069 23.3348 28.7054 21.9999C28.7054 16.5179 23.9217 11.9473 18.0297 11.9473C12.1377 11.9473 7.35938 16.5169 7.35938 21.9999C7.35781 23.3344 7.6447 24.6534 8.20038 25.8666C9.82271 24.2016 13.609 23.0333 18.0297 23.0333Z" fill="#008BD2"></path>
<path d="M18.0311 23.0438C22.4397 23.0438 26.2167 24.2018 27.8341 25.8518C28.3915 24.6516 28.6794 23.344 28.6777 22.0208C28.6777 16.5874 23.9111 12.0381 18.0311 12.0381C12.1511 12.0381 7.38672 16.5854 7.38672 22.0201C7.38597 23.3422 7.67318 24.6486 8.22839 25.8484C9.84472 24.2018 13.6234 23.0438 18.0311 23.0438Z" fill="#008DD3"></path>
<path d="M18.0278 23.0553C22.4198 23.0553 26.1905 24.2073 27.8035 25.8386C28.3583 24.6487 28.6446 23.3514 28.6422 22.0386C28.6422 16.6516 23.8902 12.1279 18.0278 12.1279C12.1655 12.1279 7.41016 16.6523 7.41016 22.0406C7.40842 23.3526 7.69448 24.6491 8.24816 25.8386C9.86316 24.2036 13.6302 23.0553 18.0278 23.0553Z" fill="#008FD5"></path>
<path d="M18.0278 23.0666C22.4112 23.0666 26.1688 24.2043 27.7782 25.8256C28.3327 24.6476 28.6187 23.361 28.6155 22.059C28.6155 16.72 23.8742 12.22 18.0315 12.22C12.1888 12.22 7.4375 16.72 7.4375 22.0603C7.43711 23.3612 7.72298 24.6463 8.27483 25.8243C9.88183 24.2036 13.6425 23.0666 18.0278 23.0666Z" fill="#0091D6"></path>
<path d="M18.0274 23.0783C22.3998 23.0783 26.1498 24.2036 27.7524 25.8143C28.3043 24.6465 28.5889 23.3705 28.5858 22.0789C28.5858 16.7869 23.8568 12.3123 18.0271 12.3123C12.1974 12.3123 7.46876 16.7869 7.46876 22.0789C7.46695 23.3697 7.75157 24.6448 8.30209 25.8123C9.90409 24.2036 13.6541 23.0783 18.0274 23.0783Z" fill="#0093D7"></path>
<path d="M18.0255 23.0891C22.3829 23.0891 26.1255 24.2074 27.7255 25.7977C28.2746 24.6425 28.5587 23.3792 28.5569 22.1001C28.5569 16.8567 23.8402 12.4031 18.0255 12.4031C12.2109 12.4031 7.49219 16.8567 7.49219 22.1031C7.49069 23.3817 7.77543 24.6445 8.32553 25.7987C9.92119 24.2074 13.6622 23.0891 18.0255 23.0891Z" fill="#0095D8"></path>
<path d="M18.0235 23.1001C22.3722 23.1001 26.1032 24.2068 27.6959 25.7858C28.2455 24.6416 28.5303 23.3884 28.5292 22.1191C28.5292 16.9215 23.8235 12.4915 18.0245 12.4915C12.2255 12.4915 7.51954 16.9205 7.51954 22.1208C7.51744 23.3897 7.80064 24.6428 8.34821 25.7875C9.94288 24.2075 13.6739 23.1001 18.0235 23.1001Z" fill="#0098DA"></path>
<path d="M18.0229 23.1123C22.3585 23.1123 26.0812 24.208 27.6709 25.771C28.217 24.6389 28.4998 23.3979 28.4982 22.141C28.4982 16.9906 23.8059 12.585 18.0229 12.585C12.2399 12.585 7.54688 16.9923 7.54688 22.1416C7.54663 23.3983 7.8288 24.639 8.37254 25.772C9.96388 24.2086 13.6849 23.1123 18.0229 23.1123Z" fill="#009ADB"></path>
<path d="M18.019 23.1244C22.3456 23.1244 26.055 24.2111 27.642 25.7598C28.1877 24.6382 28.4706 23.4071 28.4693 22.1598C28.4693 17.0578 23.7893 12.6758 18.019 12.6758C12.2486 12.6758 7.57031 17.0584 7.57031 22.1624C7.57025 23.4094 7.85265 24.6402 8.39631 25.7624C9.98231 24.2111 13.692 23.1244 18.019 23.1244Z" fill="#009CDD"></path>
<path d="M18.019 23.136C22.3303 23.136 26.034 24.211 27.613 25.7466C28.1576 24.6366 28.4404 23.4164 28.4397 22.18C28.4397 17.1273 23.773 12.7683 18.0197 12.7683C12.2663 12.7683 7.59766 17.1276 7.59766 22.1803C7.59782 23.4166 7.88033 24.6365 8.42366 25.747C10.0013 24.211 13.7013 23.136 18.019 23.136Z" fill="#009FDE"></path>
<path d="M18.017 23.1473C22.319 23.1473 26.009 24.214 27.5863 25.733C28.1284 24.6359 28.4105 23.4287 28.4107 22.205C28.4107 17.1986 23.7547 12.8623 18.017 12.8623C12.2793 12.8623 7.625 17.1956 7.625 22.2036C7.62364 23.4277 7.90458 24.6355 8.446 25.7333C10.0207 24.213 13.7133 23.1473 18.017 23.1473Z" fill="#00A1DF"></path>
<path d="M18.017 23.159C22.3067 23.159 25.9887 24.213 27.5597 25.7193C28.1006 24.633 28.3821 23.4359 28.382 22.2223C28.382 17.2623 23.741 12.9517 18.0153 12.9517C12.2897 12.9517 7.65234 17.2623 7.65234 22.2223C7.65168 23.4354 7.93141 24.6322 8.46968 25.7193C10.0437 24.213 13.7227 23.159 18.017 23.159Z" fill="#00A3E1"></path>
<path d="M18.0154 23.1704C22.295 23.1704 25.9657 24.2144 27.5354 25.7071C28.0713 24.631 28.3508 23.4453 28.3517 22.2431C28.3517 17.3308 23.725 13.0408 18.0154 13.0408C12.3057 13.0408 7.67969 17.3308 7.67969 22.2431C7.67959 23.4447 7.95943 24.6298 8.49702 25.7044C10.063 24.2144 13.7344 23.1704 18.0154 23.1704Z" fill="#00A5E2"></path>
<path d="M18.0135 23.1845C22.2801 23.1845 25.9408 24.2198 27.5038 25.6971C28.0412 24.6335 28.3211 23.4585 28.3211 22.2668C28.3211 17.4001 23.7058 13.1365 18.0135 13.1365C12.3211 13.1365 7.70312 17.4001 7.70312 22.2635C7.70321 23.4543 7.98101 24.6288 8.51446 25.6935C10.0791 24.2161 13.7425 23.1845 18.0135 23.1845Z" fill="#00A7E3"></path>
<path d="M18.0134 23.1936C22.2684 23.1936 25.9197 24.216 27.48 25.682C28.0161 24.6288 28.2952 23.4637 28.2944 22.282C28.2944 17.466 23.692 13.2236 18.015 13.2236C12.338 13.2236 7.73438 17.4666 7.73438 22.2843C7.73348 23.4647 8.01063 24.6287 8.54338 25.682C10.1047 24.216 13.753 23.1936 18.0134 23.1936Z" fill="#00AAE4"></path>
<path d="M18.0091 23.2036C22.2521 23.2036 25.8948 24.2179 27.4498 25.6683C27.9836 24.627 28.2617 23.4736 28.2611 22.3036C28.2611 17.5343 23.6721 13.3159 18.0091 13.3159C12.3461 13.3159 7.75781 17.5333 7.75781 22.3036C7.75745 23.4732 8.03435 24.6263 8.56581 25.6683C10.1208 24.2179 13.7635 23.2036 18.0091 23.2036Z" fill="#00ACE6"></path>
<path d="M18.0098 23.2175C22.2432 23.2175 25.8745 24.2175 27.4238 25.6545C27.9559 24.6249 28.2335 23.4828 28.2332 22.3238C28.2332 17.6001 23.6568 13.4075 18.0092 13.4075C12.3615 13.4075 7.78516 17.6001 7.78516 22.3238C7.78508 23.4826 8.06212 24.6246 8.59316 25.6545C10.1425 24.2181 13.7755 23.2175 18.0098 23.2175Z" fill="#00AFE7"></path>
<path d="M18.0078 23.2273C22.2298 23.2273 25.8505 24.2203 27.3972 25.6416C27.9274 24.6235 28.2046 23.4925 28.2052 22.3446C28.2052 17.6689 23.6385 13.4993 18.0078 13.4993C12.3772 13.4993 7.8125 17.6689 7.8125 22.3446C7.81342 23.492 8.08899 24.6225 8.61617 25.6416C10.1618 24.2203 13.7855 23.2273 18.0078 23.2273Z" fill="#00B1E9"></path>
<path d="M18.0068 23.2391C22.2145 23.2391 25.8275 24.2211 27.3668 25.6288C27.8953 24.621 28.1718 23.5001 28.1725 22.3621C28.1725 17.7361 23.6178 13.5881 18.0035 13.5881C12.3892 13.5881 7.83985 17.7375 7.83985 22.3635C7.83861 23.5018 8.1131 24.6234 8.63985 25.6325C10.1828 24.2211 13.7972 23.2391 18.0068 23.2391Z" fill="#10B4EA"></path>
<path d="M18.0069 23.2502C22.2032 23.2502 25.8069 24.2229 27.3432 25.6149C27.87 24.6195 28.1456 23.5105 28.1462 22.3842C28.1462 17.8049 23.6059 13.6809 18.0069 13.6809C12.4079 13.6809 7.86719 17.8049 7.86719 22.3842C7.86708 23.5102 8.14169 24.6191 8.66719 25.6149C10.2035 24.2229 13.8065 23.2502 18.0069 23.2502Z" fill="#18B6EC"></path>
<path d="M18.0062 23.2621C22.1922 23.2621 25.7872 24.2231 27.3179 25.6014C27.8421 24.6175 28.1169 23.5199 28.1179 22.4051C28.1179 17.8691 23.5919 13.7717 18.0055 13.7717C12.4192 13.7717 7.89453 17.8717 7.89453 22.4051C7.89601 23.5192 8.17009 24.6161 8.69286 25.6001C10.2265 24.2231 13.8202 23.2621 18.0062 23.2621Z" fill="#24B9ED"></path>
<path d="M18.0019 23.2734C22.1779 23.2734 25.7612 24.2248 27.2899 25.5898C27.8141 24.6176 28.089 23.5306 28.0899 22.4261C28.0899 17.9398 23.5752 13.8638 18.0039 13.8638C12.4325 13.8638 7.92188 17.9398 7.92188 22.4261C7.92152 23.5298 8.19356 24.6165 8.71387 25.5898C10.2452 24.2248 13.8259 23.2734 18.0019 23.2734Z" fill="#2DBBEE"></path>
<path d="M17.9993 23.2843C22.1616 23.2843 25.7373 24.2247 27.2606 25.5753C27.7805 24.6143 28.0527 23.5389 28.0526 22.4463C28.0526 18.008 23.5506 13.9553 17.9963 13.9553C12.442 13.9553 7.94531 18.008 7.94531 22.4463C7.94578 23.5389 8.21794 24.6141 8.73731 25.5753C10.2636 24.2247 13.8376 23.2843 17.9993 23.2843Z" fill="#36BDEF"></path>
<path d="M18.0013 23.3103C22.1593 23.3103 25.7283 24.2463 27.2489 25.5866C27.7696 24.6327 28.042 23.5631 28.0409 22.4763C28.0433 18.0666 23.5496 14.0403 18.0013 14.0403C12.4529 14.0403 7.96094 18.0666 7.96094 22.4763C7.96229 23.5628 8.2345 24.6318 8.75294 25.5866C10.2763 24.2463 13.8433 23.3103 18.0013 23.3103Z" fill="#43BFEF"></path>
<path d="M18 23.3366C22.1507 23.3366 25.717 24.2666 27.236 25.6C27.7543 24.6527 28.0266 23.5904 28.028 22.5106C28.028 18.13 23.544 14.1233 18 14.1233C12.456 14.1233 7.97266 18.129 7.97266 22.5096C7.97385 23.5898 8.24617 24.6524 8.76466 25.6C10.2853 24.2643 13.8477 23.3366 18 23.3366Z" fill="#50C1F0"></path>
<path d="M18.0019 23.3627C22.1469 23.3627 25.7059 24.2864 27.2253 25.61C27.7442 24.6701 28.0167 23.614 28.0173 22.5404C28.0173 18.1887 23.5373 14.207 18.0033 14.207C12.4693 14.207 7.98828 18.1894 7.98828 22.5404C7.99058 23.6138 8.26295 24.6695 8.78028 25.61C10.2979 24.2864 13.8539 23.3627 18.0019 23.3627Z" fill="#5AC3F0"></path>
<path d="M17.9993 23.3906C22.1387 23.3906 25.6933 24.3059 27.2097 25.6239C27.7276 24.6911 28.0001 23.6419 28.0017 22.5749C28.0017 18.2549 23.5247 14.2949 18 14.2949C12.4753 14.2949 8 18.2549 8 22.5749C8.0026 23.6418 8.27505 24.6907 8.792 25.6239C10.3053 24.3059 13.858 23.3906 17.9993 23.3906Z" fill="#65C6F1"></path>
<path d="M18.0009 23.4161C22.1342 23.4161 25.6869 24.3267 27.2009 25.6324C27.7179 24.7066 27.9905 23.6644 27.9929 22.6041C27.9929 18.3104 23.5225 14.3757 18.0059 14.3757C12.4892 14.3757 8.01953 18.3091 8.01953 22.6041C8.01853 23.6638 8.28743 24.7063 8.80087 25.6334C10.3169 24.3267 13.8675 23.4161 18.0009 23.4161Z" fill="#6DC8F2"></path>
<path d="M18.0007 23.4403C22.1283 23.4403 25.673 24.3476 27.1857 25.643C27.7026 24.7248 27.9753 23.6893 27.9777 22.6356C27.9777 18.3716 23.5137 14.46 18.0027 14.46C12.4917 14.46 8.02734 18.3716 8.02734 22.6356C8.02908 23.6886 8.29963 24.7238 8.81334 25.643C10.3277 24.3476 13.8713 23.4403 18.0007 23.4403Z" fill="#74CAF2"></path>
<path d="M18.0011 23.4668C22.1231 23.4668 25.6634 24.3668 27.1724 25.6548C27.6869 24.7436 27.9584 23.7155 27.9607 22.6691C27.9614 18.4334 23.5034 14.5444 18.0011 14.5444C12.4987 14.5444 8.03906 18.4334 8.03906 22.6668C8.0411 23.7136 8.31161 24.7424 8.82473 25.6548C10.3381 24.3668 13.8784 23.4668 18.0011 23.4668Z" fill="#7DCCF3"></path>
<path d="M18.0014 23.4943C22.1177 23.4943 25.6534 24.3866 27.1597 25.6666C27.6755 24.7628 27.9484 23.7407 27.9517 22.7C27.9517 18.4916 23.4977 14.626 18.0034 14.626C12.509 14.626 8.05469 18.492 8.05469 22.7C8.05628 23.74 8.32682 24.762 8.84002 25.6666C10.3494 24.3866 13.8824 23.4943 18.0014 23.4943Z" fill="#83CFF3"></path>
<path d="M18.0024 23.5204C22.1144 23.5204 25.6444 24.4084 27.1507 25.6768C27.664 24.7798 27.9355 23.7649 27.9384 22.7315C27.9384 18.5554 23.4924 14.7104 18.0024 14.7104C12.5124 14.7104 8.06641 18.5531 8.06641 22.7308C8.06907 23.7645 8.33915 24.78 8.85041 25.6784C10.3604 24.4084 13.8891 23.5228 18.0024 23.5204Z" fill="#8AD1F4"></path>
<path d="M18.0005 23.5444C22.1045 23.5444 25.6338 24.4254 27.1338 25.6871C27.6445 24.7965 27.9147 23.7883 27.9178 22.7617C27.9178 18.6107 23.4785 14.7927 17.9991 14.7927C12.5198 14.7927 8.07812 18.6087 8.07812 22.7594C8.08143 23.7865 8.35086 24.7951 8.86013 25.6871C10.3671 24.4277 13.8915 23.5444 18.0005 23.5444Z" fill="#91D3F4"></path>
<path d="M18.0011 23.5731C22.1011 23.5731 25.6214 24.4471 27.1228 25.6991C27.633 24.8159 27.9035 23.8147 27.9074 22.7948C27.9074 18.6748 23.4724 14.8784 18.0011 14.8784C12.5298 14.8784 8.09375 18.6748 8.09375 22.7941C8.09633 23.8141 8.3652 24.8158 8.87375 25.7001C10.3771 24.4471 13.8971 23.5731 18.0011 23.5731Z" fill="#98D5F5"></path>
<path d="M18.0014 23.6C22.0947 23.6 25.6097 24.4697 27.11 25.713C27.6209 24.8365 27.8911 23.8405 27.8934 22.826C27.8934 18.7333 23.464 14.9617 18.0014 14.9617C12.5387 14.9617 8.10938 18.7333 8.10938 22.8243C8.11156 23.8378 8.37996 24.8329 8.88771 25.71C10.388 24.4667 13.9054 23.6 18.0014 23.6Z" fill="#9FD8F6"></path>
<path d="M18.0011 23.6247C22.0901 23.6247 25.5991 24.4887 27.0974 25.7223C27.6064 24.8533 27.8764 23.8651 27.8801 22.858C27.8801 18.7913 23.4558 15.0483 18.0011 15.0483C12.5464 15.0483 8.12109 18.7973 8.12109 22.8573C8.12343 23.8648 8.39193 24.8537 8.89943 25.724C10.3988 24.4887 13.9108 23.6263 18.0011 23.6247Z" fill="#A5DAF6"></path>
<path d="M18.0007 23.6514C22.0831 23.6514 25.5904 24.5084 27.0844 25.735C27.5921 24.8725 27.8614 23.8906 27.8647 22.8897C27.8647 18.8564 23.4484 15.1304 18.0007 15.1304C12.5531 15.1304 8.13672 18.8564 8.13672 22.8884C8.13993 23.8894 8.4085 24.8716 8.91505 25.735C10.4104 24.5084 13.9177 23.653 18.0007 23.6514Z" fill="#AADCF7"></path>
<path d="M18.0024 23.6767C22.0791 23.6767 25.5791 24.5284 27.0744 25.7454C27.5804 24.8902 27.8491 23.9156 27.8528 22.922C27.8528 18.9153 23.4414 15.218 18.0024 15.218C12.5634 15.218 8.14844 18.921 8.14844 22.922C8.15372 23.9163 8.42363 24.8912 8.93044 25.7467C10.4201 24.5284 13.9238 23.6787 18.0024 23.6767Z" fill="#B1DFF7"></path>
<path d="M18.0005 23.7041C22.0728 23.7041 25.5672 24.5488 27.0595 25.7568C27.5658 24.909 27.8346 23.9406 27.8378 22.9531C27.8378 18.9751 23.4338 15.2981 18.0005 15.2981C12.5672 15.2981 8.16016 18.9788 8.16016 22.9511C8.16419 23.9395 8.43221 24.909 8.93649 25.7591C10.4312 24.5524 13.9275 23.7048 18.0005 23.7041Z" fill="#B6E1F8"></path>
<path d="M18.0008 23.73C22.0651 23.73 25.5608 24.568 27.0474 25.7683C27.5522 24.9275 27.8209 23.966 27.8251 22.9853C27.8251 19.0363 23.4251 15.3823 18.0008 15.3823C12.5764 15.3823 8.17578 19.0383 8.17578 22.9823C8.17926 23.9636 8.44623 24.9259 8.94878 25.7687C10.4408 24.5667 13.9341 23.7333 18.0008 23.73Z" fill="#BBE3F8"></path>
<path d="M18.0012 23.7561C22.0605 23.7561 25.5468 24.5895 27.0345 25.7798C27.5375 24.9455 27.8054 23.9906 27.8098 23.0165C27.8105 19.1001 23.4185 15.4668 18.0012 15.4668C12.5838 15.4668 8.1875 19.1001 8.1875 23.0158C8.19176 23.991 8.45941 24.9469 8.96217 25.7825C10.4528 24.5891 13.9412 23.7605 18.0012 23.7561Z" fill="#C1E5F9"></path>
<path d="M17.9995 23.7834C22.0531 23.7834 25.5351 24.609 27.0205 25.7907C27.5229 24.9638 27.7907 24.0156 27.7951 23.048C27.7951 19.16 23.4081 15.55 18.0031 15.55C12.5981 15.55 8.20312 19.16 8.20312 23.048C8.20731 24.0156 8.47326 24.964 8.97279 25.7927C10.4618 24.6091 13.9431 23.7834 17.9995 23.7834Z" fill="#C6E7F9"></path>
<path d="M18.0005 23.8083C22.0468 23.8083 25.5252 24.63 27.0098 25.802C27.5112 24.982 27.7788 24.0407 27.7838 23.0796C27.7838 19.2183 23.4025 15.6333 18.0005 15.6333C12.5985 15.6333 8.21484 19.2243 8.21484 23.0783C8.21984 24.0397 8.48586 24.9817 8.98451 25.8036C10.4708 24.63 13.9498 23.809 18.0005 23.8083Z" fill="#CBE9FA"></path>
<path d="M18.0025 23.8357C22.0461 23.8357 25.5171 24.6493 27.0025 25.8137C27.5012 25.0011 27.7672 24.0671 27.7715 23.1137C27.7715 19.2803 23.3975 15.719 18.0031 15.719C12.6088 15.719 8.23047 19.281 8.23047 23.1123C8.23682 24.0669 8.50375 25.0017 9.00247 25.8157C10.4828 24.6493 13.9588 23.8363 18.0025 23.8357Z" fill="#D0EBFA"></path>
<path d="M18.0025 23.8604C22.0402 23.8604 25.5065 24.6687 26.9865 25.825C27.4854 25.0194 27.7519 24.0916 27.7565 23.144C27.7565 19.3387 23.3882 15.8 18.0025 15.8C12.6169 15.8 8.24219 19.3394 8.24219 23.144C8.24788 24.0927 8.51388 25.0215 9.01119 25.8294C10.4935 24.6687 13.9655 23.8624 18.0025 23.8604Z" fill="#D5EDFA"></path>
<path d="M18.0006 23.8876C22.0339 23.8876 25.4942 24.6896 26.9726 25.8366C27.4708 25.037 27.7373 24.1148 27.7422 23.1726C27.7422 19.3976 23.3796 15.8833 18.0006 15.8833C12.6216 15.8833 8.25391 19.4033 8.25391 23.1726C8.25965 24.1142 8.52493 25.036 9.02057 25.8366C10.5006 24.6896 13.9672 23.8876 18.0006 23.8876Z" fill="#DBEFFB"></path>
<path d="M17.999 23.9137C22.0223 23.9137 25.4826 24.7107 26.9573 25.849C27.4541 25.0569 27.7208 24.1423 27.7276 23.2073C27.7276 19.4633 23.3703 15.969 17.999 15.969C12.6276 15.969 8.26562 19.4633 8.26562 23.205C8.2703 24.1406 8.53667 25.0562 9.03463 25.8483C10.511 24.7107 13.9713 23.9137 17.999 23.9137Z" fill="#DFF1FB"></path>
<path d="M18.0012 23.9393C22.0189 23.9393 25.4743 24.7313 26.9459 25.8603C27.4426 25.0759 27.7092 24.168 27.7156 23.2396C27.7156 19.5216 23.3659 16.054 18.0012 16.054C12.6366 16.054 8.28125 19.5236 8.28125 23.2366C8.28664 24.1654 8.55149 25.0741 9.04592 25.8603C10.5256 24.7306 13.9779 23.9403 18.0012 23.9393Z" fill="#E4F3FC"></path>
<path d="M18.0025 23.9667C22.0165 23.9667 25.4625 24.751 26.9359 25.872C27.4296 25.0941 27.6953 24.1933 27.7025 23.272C27.7025 19.5833 23.3579 16.1387 18.0025 16.1387C12.6472 16.1387 8.29688 19.5843 8.29688 23.2667C8.30283 24.1886 8.5673 25.0903 9.06021 25.8693C10.5359 24.7503 13.9865 23.9667 18.0025 23.9667Z" fill="#E9F5FC"></path>
<path d="M18.0013 23.9913C22.0089 23.9913 25.4519 24.771 26.9206 25.8813C27.4151 25.1116 27.681 24.2172 27.6873 23.3023C27.6873 19.6417 23.3493 16.2217 18.0003 16.2217C12.6513 16.2217 8.30859 19.6447 8.30859 23.3C8.31418 24.2159 8.57932 25.1114 9.07326 25.8827C10.5443 24.7683 13.9909 23.9927 18.0013 23.9913Z" fill="#EDF7FD"></path>
<path d="M18.0009 24.0181C22.0009 24.0181 25.4399 24.7914 26.9089 25.8938C27.4028 25.1309 27.6687 24.2429 27.6756 23.3341C27.6756 19.7031 23.3422 16.3054 18.0022 16.3054C12.6622 16.3054 8.32422 19.7051 8.32422 23.3334C8.32955 24.2426 8.59349 25.1314 9.08522 25.8961C10.5562 24.7914 13.9962 24.0194 18.0009 24.0181Z" fill="#F1F9FD"></path>
<path d="M18.0026 24.0484C21.9986 24.0484 25.4323 24.8151 26.8966 25.9081C27.39 25.1532 27.6561 24.2725 27.6633 23.3707C27.6636 19.7667 23.3359 16.3931 18.0026 16.3931C12.6693 16.3931 8.33594 19.7707 8.33594 23.3667C8.3426 24.2696 8.60684 25.1518 9.0976 25.9097C10.5666 24.8101 14.0053 24.0484 18.0026 24.0484Z" fill="#F7FBFD"></path>
<path d="M17.9996 24.0705C21.9906 24.0705 25.4156 24.8318 26.8822 25.9161C27.3738 25.1685 27.6399 24.2952 27.6489 23.4005C27.6476 19.8268 23.3276 16.4768 17.9996 16.4768C12.6716 16.4768 8.35156 19.8298 8.35156 23.3981C8.35858 24.2935 8.62222 25.1681 9.11123 25.9181C10.5736 24.8335 14.0049 24.0728 17.9996 24.0705Z" fill="#FBFDFF"></path>
<path d="M17.9989 24.0964C21.9833 24.0964 25.4086 24.851 26.8686 25.9267C27.3588 25.1855 27.6241 24.3183 27.6323 23.4297C27.6323 19.8844 23.3173 16.5574 17.9989 16.5574C12.6806 16.5574 8.36328 19.8867 8.36328 23.4277C8.3703 24.317 8.63296 25.1855 9.11995 25.9297C10.5829 24.851 14.0109 24.098 17.9989 24.0964Z" fill="white"></path>
</g>
<path d="M18.0016 20.5596C14.5102 20.5596 11.2739 21.1516 8.60156 22.1529C10.9149 27.3476 17.0016 29.6829 22.1956 27.3696C24.5191 26.3347 26.3774 24.4764 27.4122 22.1529C24.7349 21.1516 21.4916 20.5596 18.0016 20.5596Z" fill="#007BC6"></path>
</g>
<defs>
<clippath id="clip0_4453_11809">
<rect width="36" height="36" fill="white"></rect>
</clippath>
</defs>
</symbol><symbol width="36" height="36" viewbox="0 0 36 36" fill="none" xmlns="http://www.w3.org/2000/svg" id="bank2_sc">
<g clip-path="url(#clip0_4453_12113)">
<path d="M17.1843 0.018978C7.25398 0.466645 -0.433352 8.87998 0.0189811 18.8123C0.471314 28.7446 8.88265 36.428 18.8143 35.9813C28.746 35.5346 36.432 27.1146 35.981 17.185C35.53 7.25531 27.118 -0.433355 17.1843 0.018978Z" fill="#0F7AED"></path>
<path d="M22.2933 11.6641C21.5086 11.6641 18.8906 13.5881 18.8906 13.5881C18.8906 13.5881 21.5086 15.5127 22.2933 15.5127C23.387 15.5127 24.2986 14.7731 24.2986 13.5881C24.2986 12.4031 23.387 11.6641 22.2933 11.6641Z" fill="#38D200"></path>
<path d="M13.3917 28.8001C14.1764 28.8001 16.7944 26.8761 16.7944 26.8761C16.7944 26.8761 14.1787 24.9514 13.3917 24.9514C12.2981 24.9514 11.3867 25.6911 11.3867 26.8761C11.3867 28.0611 12.2997 28.8001 13.3917 28.8001Z" fill="white"></path>
<path d="M22.9748 18.1333L16.1981 13.6283L20.1141 10.886C21.0185 10.2527 21.2995 9.00234 20.6808 8.08601C20.3844 7.64446 19.9248 7.33871 19.403 7.236C18.8813 7.1333 18.3401 7.24205 17.8985 7.53834L17.8671 7.55967L13.1885 10.8667C12.7468 11.1787 12.3879 11.5936 12.1428 12.0756C11.8976 12.5575 11.7737 13.092 11.7816 13.6326C11.7896 14.1733 11.9292 14.7038 12.1884 15.1784C12.4476 15.6529 12.8185 16.0571 13.2691 16.356L23.8605 23.3757C25.0648 21.521 24.8315 19.338 22.9748 18.1333Z" fill="white"></path>
<path d="M12.1512 17.5244L23.8308 25.0334C24.2771 25.3209 24.591 25.7738 24.7035 26.2926C24.816 26.8113 24.7179 27.3536 24.4308 27.8001C24.1434 28.2463 23.6905 28.5602 23.1717 28.6727C22.6529 28.7852 22.1107 28.6872 21.6642 28.4001L13.3542 23.0587C12.4611 22.4843 11.8327 21.5788 11.6071 20.5411C11.3815 19.5035 11.5772 18.4188 12.1512 17.5254V17.5244Z" fill="#38D200"></path>
</g>
<defs>
<clippath id="clip0_4453_12113">
<rect width="36" height="36" fill="white"></rect>
</clippath>
</defs>
</symbol><symbol width="36" height="36" viewbox="0 0 36 36" fill="none" xmlns="http://www.w3.org/2000/svg" id="bank3_shinhan">
<g clip-path="url(#clip0_4453_11786)">
<path d="M17.1843 0.018978C7.25398 0.466645 -0.433352 8.87998 0.0189811 18.8123C0.471314 28.7446 8.88265 36.428 18.8143 35.9813C28.746 35.5346 36.432 27.1146 35.981 17.185C35.53 7.25531 27.118 -0.433355 17.1843 0.018978Z" fill="#0575CA"></path>
<path d="M17.5094 7.20001C11.5467 7.47068 6.93237 12.5243 7.2027 18.488C7.47304 24.4517 12.5257 29.0667 18.4887 28.7963C24.4517 28.526 29.0657 23.4723 28.7954 17.5087C28.525 11.547 23.4737 6.93335 17.513 7.20368H17.5094V7.20001ZM18.6094 17.7333C20.3117 19.3037 21.8657 20.7427 21.8657 20.7427C24.1957 23.2584 22.8837 25.1333 22.2324 25.6247C21.2537 26.3677 20.2324 26.6127 18.962 26.6807C18.8487 26.6977 18.64 26.6323 18.6287 26.4297C18.6217 26.2137 18.937 26.1597 18.937 26.1597C21.7677 25.6017 20.8657 23.7333 19.8657 22.7863C19.4437 22.3863 15.5767 18.9967 15.5767 18.9967C11.8177 15.761 12.1167 13.2333 12.1167 13.2333C12.3587 10.0563 15.0187 9.35201 17.08 9.53101C17.3207 9.55168 17.454 9.69768 17.4134 9.89968C17.3664 10.116 17.0467 10.133 17.0467 10.133C16.391 10.1727 15.806 10.2403 15.359 10.5407C13.702 11.657 14.1924 13.5543 16.4024 15.6693C16.6807 15.936 16.9787 16.215 17.2794 16.5003C17.279 16.502 17.7264 16.893 18.6097 17.7333H18.6094ZM17.325 25.7717C17.343 26.0753 16.6047 26.2077 15.7624 26.125C14.7047 26.021 13.443 25.6867 12.342 24.7363C11.3334 23.8613 10.7044 22.658 10.4004 21.603C10.0884 20.522 9.95937 19.2573 10.4724 19.357C10.6317 19.387 10.9057 20.0833 11.2007 20.5903C11.507 21.1123 11.7577 21.402 11.9934 21.5783C12.0977 21.6583 12.46 20.8543 12.9847 20.398C13.2887 20.1467 13.6217 20.0593 13.6764 20.8117C13.743 21.7347 13.5764 22.8293 13.8457 22.8293C14.098 22.8293 14.6644 22.639 15.91 22.5327C16.3784 22.492 16.6464 22.5817 16.1984 23.212C15.8732 23.7068 15.4576 24.1359 14.9734 24.4767C16.0324 25.4683 17.302 25.348 17.325 25.7717ZM18.16 16.1243C18.081 15.8157 18.062 15.4243 18.1267 14.9223C18.26 13.878 18.5407 13.3873 18.86 12.5773C19.2934 11.4893 18.2414 10.853 18.417 10.4523C18.6527 9.90968 19.4034 10.5963 20.242 10.6497C20.9627 10.6893 21.3947 10.6497 21.956 10.7277C22.701 10.8277 23.5924 11.08 23.9894 11.5453C24.354 11.972 23.7984 12.4923 23.129 12.166C22.6404 11.928 22.0254 12.075 22.386 12.584C22.8194 13.068 23.0347 13.0637 23.591 13.2553C24.7834 13.6633 24.7437 14.7033 23.887 15.2733C22.8537 15.9563 22.0014 15.6947 21.6204 14.3467C21.4294 13.6733 20.9537 13.3303 20.4674 13.522C19.981 13.7137 20.2694 14.598 20.6384 15.418C21.3737 17.299 19.5444 17.2353 19.3314 17.2093C19.0547 17.1549 18.7987 17.0246 18.5918 16.833C18.385 16.6414 18.2355 16.396 18.16 16.1243Z" fill="white"></path>
</g>
<defs>
<clippath id="clip0_4453_11786">
<rect width="36" height="36" fill="white"></rect>
</clippath>
</defs>
</symbol><symbol width="36" height="36" viewbox="0 0 36 36" fill="none" xmlns="http://www.w3.org/2000/svg" id="bank4_kb">
<g clip-path="url(#clip0_4453_12083)">
<path d="M17.1843 0.018978C7.25398 0.466645 -0.433352 8.87998 0.0189811 18.8123C0.471314 28.7446 8.88265 36.428 18.8143 35.9813C28.746 35.5346 36.432 27.1146 35.981 17.185C35.53 7.25531 27.118 -0.433355 17.1843 0.018978Z" fill="#60584C"></path>
<path d="M13.4052 18.5109C13.4276 20.0992 13.5082 21.9136 13.7875 23.3549C13.7883 23.3644 13.7915 23.3736 13.7969 23.3816C14.0186 23.7069 14.2495 24.9979 14.4319 25.4026C14.4422 25.4186 14.456 25.4322 14.4722 25.4422C14.5975 25.5279 15.0315 25.7006 15.3159 25.6656C15.3247 25.6661 15.3333 25.6632 15.3399 25.6573C15.3466 25.6515 15.3506 25.6433 15.3512 25.6346C15.4152 25.3012 15.3742 24.9866 15.3362 24.3739C15.2362 22.8662 15.1265 20.4672 15.1439 19.0126C16.3239 19.6699 20.7492 22.8422 23.0565 23.4999C23.0814 23.5071 23.1077 23.5079 23.1329 23.502C23.1581 23.4962 23.1814 23.484 23.2005 23.4666C23.3229 23.3386 23.4005 23.3162 23.5406 23.2572C23.6045 23.2276 23.6795 23.0572 23.6629 22.8626C25.1245 22.8086 27.1519 22.2476 28.2155 20.9112C28.9489 19.9919 28.9355 18.7112 28.4789 18.2806C28.4365 18.2429 28.3502 18.2209 28.2875 18.1589C27.5905 17.4649 26.6442 17.2782 25.6299 17.3389C24.6005 17.3999 23.7745 17.8312 23.1339 18.2359C23.1339 18.2359 23.1272 18.2359 23.1259 18.2316C23.0705 17.2466 23.4642 15.9959 23.1192 15.1866C23.114 15.1722 23.1039 15.1601 23.0908 15.1523C23.0777 15.1445 23.0623 15.1414 23.0472 15.1436C22.7392 15.1486 22.1402 15.3646 22.0105 15.4769C21.9951 15.4895 21.9828 15.5056 21.9747 15.5238C21.9666 15.5421 21.9629 15.562 21.9639 15.5819C21.9602 15.8116 21.8919 17.0082 21.7752 17.1236C21.7542 17.1452 21.7605 17.1672 21.7542 17.2162C21.6182 18.6562 21.6209 19.8802 21.7449 20.9129C21.7492 20.9462 21.8889 21.0929 22.0559 21.1532C22.1705 21.1949 22.6275 21.1006 23.0205 20.9532C23.0699 20.938 23.121 20.9292 23.1725 20.9272C23.2129 20.9272 23.2289 20.8776 23.2252 20.8299C23.2185 20.717 23.2219 20.6038 23.2352 20.4916C23.4605 19.5779 24.3929 18.3892 25.5685 18.2076C26.3172 18.0902 26.8112 18.3516 27.1525 18.7256C27.2415 18.8232 27.3482 19.5589 26.9235 20.3539C26.6169 20.9299 25.9975 21.4339 25.1609 21.7509C24.2802 22.0842 23.3962 22.1556 22.4802 22.1222C21.5869 21.5839 20.0892 20.3359 18.7752 19.8392C18.5672 19.7579 18.1952 19.4332 18.0302 19.2999C17.3926 18.7866 16.0282 17.8976 15.2182 17.3526C15.2122 17.3472 15.2122 17.3416 15.2122 17.3302C15.2032 17.2732 15.2069 17.2149 15.2232 17.1596C15.2281 17.1438 15.2361 17.1293 15.2469 17.1169C15.2577 17.1045 15.271 17.0945 15.2859 17.0876C15.5702 16.8989 16.7689 16.2429 16.8699 16.0876C16.9106 16.052 16.9554 16.0214 17.0032 15.9962C18.8032 14.9046 21.9662 13.4249 23.3485 11.9962C23.3649 11.9717 23.3719 11.9421 23.3682 11.9129C23.369 11.8545 23.3777 11.7964 23.3939 11.7402C23.4529 11.5681 23.4581 11.382 23.4085 11.2069C23.4047 11.1936 23.3979 11.1814 23.3885 11.1713C23.3791 11.1612 23.3675 11.1534 23.3545 11.1486C22.6172 11.0766 21.6365 11.5252 20.7249 12.3796C20.4542 12.6332 20.2369 12.7276 19.9965 12.8642C18.9632 13.4509 16.5166 14.9702 15.3489 15.7219C15.3462 15.7242 15.343 15.7256 15.3395 15.726C15.336 15.7265 15.3325 15.7259 15.3294 15.7244C15.3262 15.7229 15.3236 15.7205 15.3218 15.7175C15.32 15.7145 15.3191 15.711 15.3192 15.7076C15.3922 14.3332 15.6552 12.3766 15.9452 10.8666C15.9525 10.8291 15.9453 10.7903 15.9252 10.7579C15.8302 10.6139 15.7739 10.4432 15.7392 10.4072C15.7349 10.4019 15.7296 10.3974 15.7235 10.3942C15.5255 10.2942 15.3672 10.3316 15.2196 10.3656C15.0719 10.3996 14.8919 10.5159 14.6602 10.5716C14.6467 10.5739 14.6339 10.5796 14.6232 10.5881C14.6125 10.5967 14.6041 10.6079 14.5989 10.6206C14.0402 12.0079 13.5362 14.3826 13.4382 16.2236C13.4382 16.2299 13.4382 16.2429 13.4259 16.2349C12.5113 15.6515 11.5623 15.1237 10.5842 14.6546C10.57 14.649 10.5553 14.6451 10.5402 14.6429C10.3242 14.6166 10.0752 14.4579 9.84322 14.3199C9.58688 14.1649 9.08288 13.8086 8.76822 13.6266C8.75295 13.6155 8.73563 13.6075 8.71726 13.6031C8.69889 13.5988 8.67984 13.5981 8.66122 13.6012C8.40922 13.6446 7.88488 13.9949 7.73955 14.2219C7.69255 14.2939 7.78922 14.4486 7.77755 14.5442C7.77642 14.5493 7.77662 14.5546 7.77814 14.5595C7.77966 14.5645 7.78244 14.569 7.78622 14.5726C8.07855 14.8726 8.84888 15.4059 9.67188 15.8469C10.6222 16.3596 11.5892 16.8469 11.9902 17.1002C12.0001 17.1068 12.0085 17.1155 12.0149 17.1256C12.076 17.1927 12.1493 17.2476 12.2309 17.2876C12.4202 17.4006 12.4599 17.4136 12.5146 17.4626C12.5396 17.4862 12.5275 17.5129 12.5016 17.5346C11.4935 18.2346 9.49922 19.5302 8.54588 20.1706C8.28844 20.3099 8.0241 20.436 7.75388 20.5486C7.51122 20.6486 7.29322 20.8092 7.20888 20.9919C7.19222 21.0252 7.21455 21.0452 7.23988 21.0532C7.39322 21.0962 7.43055 21.2042 7.53722 21.2462C7.57632 21.2573 7.61696 21.2619 7.65755 21.2599C7.85555 21.2676 8.20588 21.1332 8.83155 20.8599C9.54522 20.5422 11.7666 19.1799 12.0349 19.0239C12.0399 19.0197 12.0463 19.0175 12.0529 19.0179C12.1819 19.0179 12.3012 18.9222 12.4196 18.8309C12.6176 18.6861 12.8287 18.5602 13.0502 18.4549L13.4102 18.2549L13.4052 18.5109Z" fill="#FFCC00"></path>
</g>
<defs>
<clippath id="clip0_4453_12083">
<rect width="36" height="36" fill="white"></rect>
</clippath>
</defs>
</symbol><symbol width="36" height="36" viewbox="0 0 36 36" fill="none" xmlns="http://www.w3.org/2000/svg" id="bank5_hana">
<g clip-path="url(#clip0_4453_11953)">
<path d="M17.1843 0.018978C7.25398 0.466645 -0.433352 8.87998 0.0189811 18.8123C0.471314 28.7446 8.88265 36.428 18.8143 35.9813C28.746 35.5346 36.432 27.1146 35.981 17.185C35.53 7.25531 27.118 -0.433355 17.1843 0.018978Z" fill="#009591"></path>
<path d="M21.9858 20.5383C21.9379 20.2428 21.8531 19.9544 21.7331 19.68C21.3535 18.8613 20.8251 18.1737 20.0331 17.7133C19.4364 17.3594 18.7545 17.1746 18.0607 17.1788C17.3669 17.1829 16.6873 17.3759 16.0948 17.737C15.542 18.07 15.0934 18.551 14.7998 19.1257C14.7019 19.3214 14.6199 19.5246 14.5545 19.7333C14.2341 20.7543 14.2451 22.1263 14.8245 23.0583C15.0074 23.3681 15.2851 23.6108 15.6165 23.7507C15.7827 23.8179 15.9622 23.8457 16.141 23.8318C16.3198 23.818 16.4929 23.763 16.6468 23.671C17.0341 23.421 17.1041 22.9437 17.0315 22.519C16.9398 21.9753 16.8701 21.439 17.0695 20.9103C17.1305 20.7386 17.2288 20.5825 17.3575 20.4533C17.4383 20.3774 17.5304 20.3144 17.6305 20.2667C17.8402 20.1606 18.0776 20.122 18.3101 20.156C18.7125 20.2207 19.0435 20.534 19.2225 20.901C19.4015 21.268 19.4498 21.6837 19.4695 22.092C19.5551 23.8697 19.1308 25.7107 18.6775 27.42C18.6295 27.5956 18.5815 27.7708 18.5335 27.9457C18.4951 28.081 18.4255 28.253 18.5118 28.384C18.5514 28.4393 18.6065 28.4817 18.6701 28.5057C18.9321 28.6117 19.1495 28.4497 19.3261 28.2723C20.3678 27.224 21.0361 25.8723 21.4928 24.4793C21.6669 23.9613 21.8057 23.4321 21.9085 22.8953C22.0418 22.1597 22.1191 21.3163 21.9881 20.5403" fill="white"></path>
<path d="M29.4494 12.3207C29.4494 12.054 29.2131 11.8774 28.9598 11.8874C28.7064 11.8974 28.4621 12.0314 28.2264 12.1207C23.6414 13.8637 18.4698 14.195 13.6378 13.498C12.8115 13.3794 11.9741 13.21 11.1418 13.082C10.6225 13.0014 10.1085 12.884 9.58378 12.8437C9.13645 12.8104 8.58012 12.793 8.21712 13.105C7.73978 13.516 7.77345 14.2957 8.04412 14.812C8.36878 15.4314 8.93778 15.892 9.52878 16.2477C10.1048 16.5897 10.7895 16.9554 11.4728 16.9117C13.3195 16.7933 15.1608 16.6155 16.9968 16.3784C20.1278 15.9714 23.4094 15.5864 26.3488 14.3737C27.3104 13.9764 28.2588 13.481 29.0844 12.8404C29.2351 12.728 29.4511 12.5404 29.4511 12.3234" fill="white"></path>
<path d="M16.2985 10.7497C16.3096 11.2208 16.5045 11.6688 16.8416 11.998C17.1787 12.3273 17.6312 12.5116 18.1024 12.5116C18.5736 12.5116 19.026 12.3273 19.3631 11.998C19.7002 11.6688 19.8951 11.2208 19.9062 10.7497C19.9057 10.5999 19.8724 10.452 19.8085 10.3164C19.6535 9.98872 19.4802 9.83039 19.4965 9.43739C19.5205 8.90739 18.8409 8.90039 18.4759 8.90039C18.0759 8.90039 17.6535 8.95572 17.2935 9.13639C17.0005 9.28351 16.7529 9.50753 16.5774 9.78448C16.4018 10.0614 16.3049 10.3809 16.2969 10.7087V10.7507" fill="white"></path>
</g>
<defs>
<clippath id="clip0_4453_11953">
<rect width="36" height="36" fill="white"></rect>
</clippath>
</defs>
</symbol><symbol width="36" height="36" viewbox="0 0 36 36" fill="none" xmlns="http://www.w3.org/2000/svg" id="bank6_citi">
<g clip-path="url(#clip0_4453_11802)">
<path d="M17.1843 0.018978C7.25398 0.466645 -0.433352 8.87998 0.0189811 18.8123C0.471314 28.7446 8.88265 36.428 18.8143 35.9813C28.746 35.5346 36.432 27.1146 35.981 17.185C35.53 7.25531 27.118 -0.433355 17.1843 0.018978Z" fill="#1D2087"></path>
<path d="M11.6053 21.6439C11.1218 21.6436 10.6463 21.5215 10.2224 21.289C9.79853 21.0565 9.44002 20.721 9.17991 20.3135C8.91979 19.906 8.76645 19.4395 8.73402 18.9572C8.70158 18.4748 8.7911 17.992 8.99431 17.5534C9.19753 17.1147 9.5079 16.7342 9.89682 16.4471C10.2857 16.1599 10.7407 15.9753 11.2197 15.9102C11.6988 15.8451 12.1865 15.9016 12.638 16.0746C13.0894 16.2476 13.4901 16.5314 13.803 16.8999L14.883 15.8199C14.3013 15.171 13.5404 14.7091 12.6962 14.4926C11.8521 14.2761 10.9628 14.3148 10.1406 14.6038C9.31848 14.8927 8.60047 15.4189 8.0774 16.1159C7.55432 16.8129 7.24965 17.6494 7.20193 18.5195C7.1542 19.3896 7.36555 20.2544 7.80926 21.0044C8.25297 21.7544 8.90911 22.356 9.69472 22.7332C10.4803 23.1103 11.3601 23.246 12.2229 23.1232C13.0856 23.0003 13.8925 22.6244 14.5416 22.0429C14.6483 21.9472 14.7503 21.8464 14.8476 21.7406L13.7676 20.6606C13.4982 20.9693 13.1658 21.2167 12.7929 21.3863C12.4199 21.5559 12.015 21.6438 11.6053 21.6439Z" fill="white"></path>
<path d="M17.3429 14.3557H15.4883V23.1484H17.3429V14.3557Z" fill="white"></path>
<path d="M27.05 14.3557H25.1953V23.1484H27.05V14.3557Z" fill="white"></path>
<path d="M22.0442 21.3124V16.1497H23.5519V14.555H22.0442V12.092L20.1889 13.0064V14.555H18.6992V16.1497H20.1899V21.3124C20.1899 21.3124 20.2232 23.1517 22.0279 23.1517C23.8326 23.1517 24.2376 22.2647 24.2376 21.2944H22.7806C22.7806 21.2944 22.4409 21.6954 22.0442 21.3124Z" fill="white"></path>
<path d="M21.2293 10.872C23.1293 10.872 24.8959 11.7637 26.3599 13.2877H28.8016C26.8229 10.9277 24.1606 9.479 21.2293 9.479C18.2979 9.479 15.6349 10.9277 13.6562 13.2877H16.0979C17.5609 11.7643 19.3273 10.872 21.2293 10.872Z" fill="#E50012"></path>
</g>
<defs>
<clippath id="clip0_4453_11802">
<rect width="36" height="36" fill="white"></rect>
</clippath>
</defs>
</symbol><symbol width="36" height="36" viewbox="0 0 36 36" fill="none" xmlns="http://www.w3.org/2000/svg" id="bank7_im">
<g clip-path="url(#clip0_4453_12051)">
<path d="M17.1843 0.018978C7.25398 0.466645 -0.433352 8.87998 0.0189811 18.8123C0.471314 28.7446 8.88265 36.428 18.8143 35.9813C28.746 35.5346 36.432 27.1146 35.981 17.185C35.53 7.25531 27.118 -0.433355 17.1843 0.018978Z" fill="#00C4A6"></path>
<path d="M10.2584 16.2583H6V23.9977H10.2584V16.2583Z" fill="white"></path>
<mask id="mask0_4453_12051" style="mask-type:luminance" maskunits="userSpaceOnUse" x="10" y="12" width="13" height="12">
<path d="M10.2578 16.2584C12.3097 16.2606 14.277 17.0767 15.7279 18.5277C17.1788 19.9786 17.9949 21.9458 17.9972 23.9977H22.2556C22.2556 22.4222 21.9452 20.862 21.3423 19.4064C20.7393 17.9508 19.8556 16.6281 18.7415 15.5141C17.6274 14.4 16.3048 13.5162 14.8491 12.9133C13.3935 12.3103 11.8334 12 10.2578 12V16.2584Z" fill="white"></path>
</mask>
<g mask="url(#mask0_4453_12051)">
<path d="M22.2556 12.002H10.2578V23.9997H22.2556V12.002Z" fill="white"></path>
</g>
<path d="M29.9981 12V16.2584C27.9461 16.2606 25.9789 17.0767 24.528 18.5277C23.077 19.9786 22.2609 21.9458 22.2587 23.9977H17.9961C17.9961 22.4218 18.3066 20.8613 18.9098 19.4054C19.513 17.9495 20.3971 16.6267 21.5116 15.5126C22.6262 14.3984 23.9493 13.5148 25.4054 12.9121C26.8615 12.3094 28.4221 11.9994 29.9981 12Z" fill="white"></path>
</g>
<defs>
<clippath id="clip0_4453_12051">
<rect width="36" height="36" fill="white"></rect>
</clippath>
</defs>
</symbol><symbol width="36" height="36" viewbox="0 0 36 36" fill="none" xmlns="http://www.w3.org/2000/svg" id="bank8_bnk">
<g clip-path="url(#clip0_4453_12023)">
<path d="M17.1843 0.018978C7.25398 0.466645 -0.433352 8.87998 0.0189811 18.8123C0.471314 28.7446 8.88265 36.428 18.8143 35.9813C28.746 35.5346 36.432 27.1146 35.981 17.185C35.53 7.25531 27.118 -0.433355 17.1843 0.018978Z" fill="#D71921"></path>
<path d="M27.6411 15.8734H28.1978C28.2155 15.8734 28.2325 15.8663 28.245 15.8538C28.2575 15.8413 28.2645 15.8244 28.2645 15.8067V14.76C28.2645 14.7427 28.2577 14.726 28.2457 14.7136C28.2336 14.7011 28.2171 14.6939 28.1998 14.6934H27.4165C26.5121 14.6934 26.0325 14.9814 25.7605 15.596L24.0605 19.76C23.9575 20.0084 23.8091 20.1267 23.5161 20.1267V14.76C23.5162 14.7427 23.5094 14.726 23.4973 14.7136C23.4853 14.7011 23.4688 14.6939 23.4515 14.6934H22.1995C22.1821 14.6934 22.1655 14.7001 22.153 14.7122C22.1406 14.7242 22.1333 14.7407 22.1328 14.758V21.1914C22.1332 21.2222 22.1457 21.2517 22.1676 21.2735C22.1896 21.2952 22.2193 21.3074 22.2501 21.3074H23.6501C24.5545 21.3074 24.9671 21.0194 25.2405 20.403L26.9181 16.2917C27.0535 16.0004 27.2471 15.8727 27.6381 15.8727" fill="white"></path>
<path d="M12.3734 18.0001C12.8774 17.7924 13.2898 17.3244 13.2898 16.5478C13.2898 15.3958 12.2991 14.6931 11.1031 14.6931H7.41042C7.39274 14.6931 7.37578 14.7001 7.36328 14.7126C7.35077 14.7251 7.34375 14.7421 7.34375 14.7598V15.8081C7.34375 15.8258 7.35077 15.8428 7.36328 15.8553C7.37578 15.8678 7.39274 15.8748 7.41042 15.8748H10.8478C11.4021 15.8748 11.7771 16.2138 11.7771 16.6308C11.7771 17.0478 11.4008 17.3861 10.8478 17.3861H8.80642V16.6064C8.80642 16.5888 8.79939 16.5718 8.78689 16.5593C8.77439 16.5468 8.75743 16.5398 8.73975 16.5398H7.41042C7.39274 16.5398 7.37578 16.5468 7.36328 16.5593C7.35077 16.5718 7.34375 16.5888 7.34375 16.6064V21.2398C7.34375 21.2575 7.35077 21.2744 7.36328 21.2869C7.37578 21.2994 7.39274 21.3064 7.41042 21.3064H11.0501C12.4108 21.3064 13.3834 20.6731 13.3834 19.3778C13.3834 18.7418 13.0084 18.2164 12.3754 17.9981M10.9204 20.1531H8.80642V18.6038H10.9181C11.4878 18.6038 11.8721 18.9514 11.8721 19.3791C11.8721 19.8068 11.4878 20.1544 10.9181 20.1544" fill="white"></path>
<path d="M28.9339 21.2334L26.7926 18.4931C26.7869 18.4851 26.7769 18.4864 26.7746 18.4931L26.1986 19.9041C26.1964 19.9079 26.1953 19.9123 26.1953 19.9167C26.1953 19.9212 26.1964 19.9255 26.1986 19.9294L27.1339 21.1841C27.1616 21.2247 27.1994 21.2574 27.2436 21.2788C27.2878 21.3003 27.3369 21.3098 27.3859 21.3064H28.8979C28.9069 21.3071 28.916 21.305 28.9238 21.3004C28.9316 21.2958 28.9378 21.289 28.9417 21.2807C28.9455 21.2725 28.9467 21.2634 28.9452 21.2544C28.9437 21.2455 28.9395 21.2372 28.9332 21.2307" fill="white"></path>
<path d="M15.7282 16.54H14.4768C14.4591 16.54 14.4422 16.5471 14.4297 16.5596C14.4172 16.5721 14.4102 16.589 14.4102 16.6067V21.24C14.4102 21.2577 14.4172 21.2747 14.4297 21.2872C14.4422 21.2997 14.4591 21.3067 14.4768 21.3067H15.7282C15.7458 21.3067 15.7628 21.2997 15.7753 21.2872C15.7878 21.2747 15.7948 21.2577 15.7948 21.24V16.6067C15.7948 16.589 15.7878 16.5721 15.7753 16.5596C15.7628 16.5471 15.7458 16.54 15.7282 16.54Z" fill="white"></path>
<path d="M20.8722 14.6922H19.6238C19.6061 14.6922 19.5892 14.6993 19.5767 14.7118C19.5642 14.7243 19.5572 14.7412 19.5572 14.7589V20.1256C19.2642 20.1256 19.1158 20.0076 19.0128 19.7589L17.3128 15.5952C17.0385 14.9819 16.5582 14.6922 15.6568 14.6922H14.4768C14.4591 14.6922 14.4422 14.6993 14.4297 14.7118C14.4172 14.7243 14.4102 14.7412 14.4102 14.7589V15.8072C14.4102 15.8249 14.4172 15.8419 14.4297 15.8544C14.4422 15.8669 14.4591 15.8739 14.4768 15.8739H15.4328C15.8262 15.8739 16.0212 16.0012 16.1528 16.2929L17.8295 20.4036C18.1032 21.0189 18.5158 21.3079 19.4192 21.3079H20.8192C20.8345 21.308 20.8497 21.3051 20.8639 21.2993C20.878 21.2935 20.891 21.285 20.9018 21.2742C20.9127 21.2634 20.9214 21.2506 20.9274 21.2365C20.9333 21.2224 20.9364 21.2072 20.9365 21.1919V14.7586C20.9365 14.7409 20.9295 14.7239 20.917 14.7114C20.9045 14.6989 20.8875 14.6919 20.8698 14.6919" fill="white"></path>
</g>
<defs>
<clippath id="clip0_4453_12023">
<rect width="36" height="36" fill="white"></rect>
</clippath>
</defs>
</symbol><symbol width="36" height="36" viewbox="0 0 36 36" fill="none" xmlns="http://www.w3.org/2000/svg" id="bank9_kj">
<g clip-path="url(#clip0_4453_12131)">
<path d="M17.1843 0.018978C7.25398 0.466645 -0.433352 8.87998 0.0189811 18.8123C0.471314 28.7446 8.88265 36.428 18.8143 35.9813C28.746 35.5346 36.432 27.1146 35.981 17.185C35.53 7.25531 27.118 -0.433355 17.1843 0.018978Z" fill="#193282"></path>
<path d="M27 9H9V27H27V9Z" fill="#0090D0"></path>
<path d="M9 9.00098L13.4987 13.5023L18 9.00098H9Z" fill="#0090D0"></path>
<path d="M9 9.00098V18L13.4987 13.5023L9 9.00098Z" fill="#0099D7"></path>
<path d="M18 18.0001L13.5013 13.4988L9 18.0001H18Z" fill="#0090D0"></path>
<path d="M17.9987 18V9.00098L13.5 13.4986L17.9987 18Z" fill="#0081C8"></path>
<path d="M18 9.00098V18L22.4977 13.5023L18 9.00098Z" fill="#0070BA"></path>
<path d="M27 18.0001L22.5013 13.4988L18 18.0001H27Z" fill="#004B97"></path>
<path d="M9 18L13.4987 22.5023L18 18H9Z" fill="#0081C8"></path>
<path d="M9 18V27.0003L13.4987 22.5023L9 18Z" fill="#0070BA"></path>
<path d="M18 27.0004L13.5013 22.4988L9 27.0004H18Z" fill="#0066B2"></path>
<path d="M17.9987 27.0003V18L13.5 22.4987L17.9987 27.0003Z" fill="#00519B"></path>
<path d="M18 18L22.4977 22.5023L27 18H18Z" fill="#1A3180"></path>
<path d="M18 18V27.0003L22.4977 22.5023L18 18Z" fill="#004B97"></path>
<path d="M27 27.0004L22.5013 22.4988L18 27.0004H27Z" fill="#1A3180"></path>
<path d="M26.9987 27.0003V18L22.5 22.4987L26.9987 27.0003Z" fill="#1A3180"></path>
<path d="M18 9.00098L22.4977 13.5023L27 9.00098H18Z" fill="#0066B2"></path>
<path d="M26.9987 18V9.00098L22.5 13.4986L26.9987 18Z" fill="#00519B"></path>
<path d="M27.0002 20.2518L21.2372 14.7625L12.4922 23.5304L15.6825 26.7201L21.2372 21.2498L27.0002 26.9808V20.2518Z" fill="white"></path>
</g>
<defs>
<clippath id="clip0_4453_12131">
<rect width="36" height="36" fill="white"></rect>
</clippath>
</defs>
</symbol><symbol width="36" height="36" viewbox="0 0 36 36" fill="none" xmlns="http://www.w3.org/2000/svg" id="bank10_ibk">
<g clip-path="url(#clip0_4453_12064)">
<path d="M17.1843 0.018978C7.25398 0.466645 -0.433352 8.87998 0.0189811 18.8123C0.471314 28.7446 8.88265 36.428 18.8143 35.9813C28.746 35.5346 36.432 27.1146 35.981 17.185C35.53 7.25531 27.118 -0.433355 17.1843 0.018978Z" fill="#004B9D"></path>
<path d="M12.4541 7.79774C12.1667 7.9404 11.9106 8.13884 11.7007 8.38149C11.4907 8.62414 11.3312 8.90615 11.2314 9.21107L7.32408 20.9471C7.11962 21.5618 7.1677 22.2326 7.45775 22.8119C7.7478 23.3911 8.25606 23.8315 8.87074 24.0361L21.6781 28.3361C22.2925 28.5384 22.9621 28.4893 23.5405 28.1995C24.1189 27.9097 24.559 27.4027 24.7647 26.7894L28.6704 15.0534C28.8741 14.4388 28.8259 13.7685 28.5365 13.1893C28.2471 12.6101 27.7399 12.1692 27.1261 11.9631L14.3187 7.66674C14.0148 7.5639 13.6934 7.52253 13.3733 7.54502C13.0531 7.5675 12.7407 7.65341 12.4541 7.79774Z" fill="white"></path>
<path d="M15.8652 9.08168C18.1059 9.91235 19.7415 12.3057 19.5825 14.915C19.5262 15.8876 19.2273 16.8307 18.7129 17.658C18.0074 16.8681 17.1249 16.2565 16.1375 15.8733L15.5652 15.6487V21.092L16.1459 20.8667C17.1314 20.4799 18.0111 19.8647 18.7125 19.0717C19.3991 20.1723 19.7028 21.469 19.5762 22.76C19.4496 24.0511 18.8999 25.2641 18.0125 26.2103L18.0182 26.206L18.0125 26.2127L9.1262 23.241C8.72364 23.1086 8.38984 22.8222 8.19773 22.4445C8.00561 22.0668 7.97079 21.6283 8.10087 21.225L12.0182 9.48102C12.1463 9.08254 12.4274 8.75125 12.7997 8.55998C13.172 8.36871 13.605 8.33311 14.0035 8.46102L14.0162 8.46535L15.8652 9.08168Z" fill="#0092D8"></path>
<path d="M13.5746 21.4209H12.6953V15.3232H13.5746V21.4209Z" fill="white"></path>
<path d="M18.1997 18.3643C17.7048 17.7742 17.0979 17.2878 16.4141 16.9333V19.8C17.0974 19.4428 17.7041 18.9551 18.1997 18.3643Z" fill="#E43D30"></path>
<path d="M26.8475 12.744L18.6875 10.021C19.7135 11.1399 20.3304 12.5732 20.4378 14.0875C20.5452 15.6018 20.1367 17.1078 19.2788 18.3603C20.1157 19.5718 20.5312 21.0249 20.4612 22.4956C20.3912 23.9664 19.8396 25.3734 18.8915 26.5L21.9548 27.523C22.1526 27.588 22.3612 27.6133 22.5687 27.5976C22.7763 27.5819 22.9787 27.5255 23.1645 27.4316C23.3502 27.3376 23.5156 27.208 23.6512 27.0501C23.7868 26.8922 23.89 26.7091 23.9548 26.5113V26.507L27.8722 14.7637C28.0023 14.3599 27.9676 13.9211 27.7757 13.5428C27.5838 13.1646 27.2502 12.8774 26.8475 12.744ZM24.6808 21.403H23.5808L21.3142 18.3603L23.6182 15.3103H24.7348L22.4228 18.3603L24.6808 21.403Z" fill="#004B9D"></path>
</g>
<defs>
<clippath id="clip0_4453_12064">
<rect width="36" height="36" fill="white"></rect>
</clippath>
</defs>
</symbol><symbol width="36" height="36" viewbox="0 0 36 36" fill="none" xmlns="http://www.w3.org/2000/svg" id="bank11_kdb">
<g clip-path="url(#clip0_4453_12086)">
<path d="M17.1843 0.018978C7.25398 0.466645 -0.433352 8.87998 0.0189811 18.8123C0.471314 28.7446 8.88265 36.428 18.8143 35.9813C28.746 35.5346 36.432 27.1146 35.981 17.185C35.53 7.25531 27.118 -0.433355 17.1843 0.018978Z" fill="#002CB2"></path>
<path d="M11.5397 16.1231C11.0063 15.2898 10.573 13.5541 10.9967 12.7141L7.47601 18.2308C7.11601 18.7994 7.09801 19.7308 7.47601 20.3188L11.4807 26.6121C11.8407 27.1701 12.6727 27.6534 13.5197 27.6534H18.8863L11.5397 16.1231Z" fill="white"></path>
<path d="M11.3492 12.1666C10.9575 13.1893 11.5578 15.0806 12.0265 15.813L13.9498 18.7396C13.9838 18.6188 14.0339 18.5031 14.0988 18.3956L18.7932 10.981H13.5155C12.5795 10.981 11.8388 11.3933 11.4405 12.025L11.3492 12.1666Z" fill="white"></path>
<path d="M12.6562 17.8757L14.0206 20.0164L12.6562 17.8757Z" fill="white"></path>
<path d="M24.4579 19.8773C24.9929 20.7106 25.4246 22.4463 25.0009 23.2863L28.5216 17.7696C28.8816 17.2009 28.8996 16.2696 28.5216 15.6816L24.5169 9.38826C24.1573 8.83026 23.3249 8.34692 22.4779 8.34692H17.1133L24.4579 19.8773Z" fill="white"></path>
<path d="M24.651 23.8333C25.0427 22.8106 24.4424 20.9193 23.9737 20.1869L22.0504 17.2603C22.0164 17.3811 21.9663 17.4968 21.9014 17.6043L17.207 25.0193H22.4847C23.4207 25.0193 24.1614 24.6069 24.5597 23.9753L24.651 23.8333Z" fill="white"></path>
<path d="M23.3448 18.1246L21.9805 15.9839L23.3448 18.1246Z" fill="white"></path>
</g>
<defs>
<clippath id="clip0_4453_12086">
<rect width="36" height="36" fill="white"></rect>
</clippath>
</defs>
</symbol><symbol width="36" height="36" viewbox="0 0 36 36" fill="none" xmlns="http://www.w3.org/2000/svg" id="bank12_suhyup">
<g clip-path="url(#clip0_4453_12119)">
<path d="M18 36C27.9411 36 36 27.9411 36 18C36 8.05888 27.9411 0 18 0C8.05888 0 0 8.05888 0 18C0 27.9411 8.05888 36 18 36Z" fill="#0068B8"></path>
<path d="M12.8179 17.9926C15.2466 19.5543 15.4819 20.952 14.9599 22.104C14.7439 22.585 14.2876 23.004 14.2876 23.004C14.2876 23.004 16.3489 22.0096 17.0013 20.556C17.7306 18.9323 16.9406 17.213 14.7316 15.7226C12.9016 14.4893 13.6619 13.3226 13.6619 13.3226C13.6619 13.3226 14.2653 11.7856 16.5186 11.7863C18.8226 11.7863 18.9926 13.3356 18.9926 13.3356L19.8926 11.5523C20.0186 11.2713 18.4259 10.4816 16.1363 10.481C13.8819 10.481 11.8029 11.3873 10.9926 13.193C10.0019 15.398 11.2593 16.992 12.8179 17.9926Z" fill="white"></path>
<path d="M27.6332 20.492C27.9495 19.605 29.7538 15.146 26.6492 15.1453C24.5302 15.1453 22.1325 16.8076 22.1325 16.8076L24.2365 11.9116C24.2365 11.9116 24.8188 10.738 23.4725 10.7373H21.3032C21.3032 10.7373 22.1082 11.055 21.3968 12.6396L18.2592 19.7863C18.2592 19.7863 16.4778 23.6506 12.8952 23.65C8.17984 23.65 8.54484 18.8583 8.54484 18.8583L6.83984 22.621C6.83984 22.621 8.36418 25.5176 12.0922 25.5183C14.3465 25.5183 15.7765 24.568 16.4712 23.8183C16.4712 23.8183 15.7982 25.385 17.5838 25.385H19.4172C19.4172 25.385 18.9008 25.025 18.9392 24.5686C18.9775 24.1123 19.5908 22.6706 20.0058 21.916C20.4208 21.1613 22.4768 17.5 24.8728 17.27C27.0328 17.0633 23.7778 23.848 23.7778 23.848C23.7778 23.848 23.1492 25.3166 24.7822 25.36C26.4152 25.4033 26.7155 25.4016 26.7155 25.4016C26.7155 25.4016 26.1012 24.9423 26.4045 24.1056C26.7078 23.269 27.3165 21.3796 27.6332 20.492Z" fill="white"></path>
</g>
<defs>
<clippath id="clip0_4453_12119">
<rect width="36" height="36" fill="white"></rect>
</clippath>
</defs>
</symbol><symbol width="36" height="36" viewbox="0 0 36 36" fill="none" xmlns="http://www.w3.org/2000/svg" id="bank13_nh">
<g clip-path="url(#clip0_4453_12169)">
<path d="M18 36C27.9411 36 36 27.9411 36 18C36 8.05888 27.9411 0 18 0C8.05888 0 0 8.05888 0 18C0 27.9411 8.05888 36 18 36Z" fill="#005BAC"></path>
<path d="M21.5472 9L17.9982 10.7813L14.4492 9L17.9982 15.747L21.5472 9Z" fill="#FABE00"></path>
<path d="M22.7901 14.215L22.7371 14.1667L25.2668 13.104V9.54004L20.8668 11.4164C20.8668 11.4164 18.4861 15.9307 18.4308 16.0367C19.3681 16.1469 20.228 16.6112 20.8343 17.3345C21.4406 18.0578 21.7476 18.9855 21.6924 19.9278C21.6372 20.87 21.224 21.7555 20.5374 22.4031C19.8508 23.0507 18.9426 23.4114 17.9988 23.4114C17.0549 23.4114 16.1467 23.0507 15.4601 22.4031C14.7735 21.7555 14.3603 20.87 14.3051 19.9278C14.2499 18.9855 14.5569 18.0578 15.1632 17.3345C15.7695 16.6112 16.6294 16.1469 17.5668 16.0367C17.5134 15.933 15.1334 11.4164 15.1334 11.4164L10.7411 9.54004V13.104L13.2724 14.169L13.2178 14.2157C10.1844 16.86 9.86809 21.463 12.5124 24.497C15.1568 27.531 19.7601 27.8467 22.7938 25.2024C25.8274 22.558 26.1434 17.955 23.5001 14.921C23.2814 14.67 23.0458 14.4344 22.7948 14.2157L22.7901 14.215Z" fill="#FABE00"></path>
</g>
<defs>
<clippath id="clip0_4453_12169">
<rect width="36" height="36" fill="white"></rect>
</clippath>
</defs>
</symbol><symbol width="36" height="36" viewbox="0 0 36 36" fill="none" xmlns="http://www.w3.org/2000/svg" id="bank14_smg">
<g clip-path="url(#clip0_4453_12099)">
<path d="M18 36C27.9411 36 36 27.9411 36 18C36 8.05888 27.9411 0 18 0C8.05888 0 0 8.05888 0 18C0 27.9411 8.05888 36 18 36Z" fill="#00326D"></path>
<path d="M14.375 23.4758C13.7989 23.4755 13.2353 23.3073 12.7532 22.9917C12.2711 22.6762 11.8915 22.2269 11.6608 21.699C11.43 21.1711 11.3582 20.5873 11.454 20.0192C11.5498 19.451 11.8092 18.9232 12.2004 18.5001C11.6736 17.5323 11.3985 16.4476 11.4004 15.3458C11.4004 15.1698 11.4074 14.9948 11.421 14.8218C8.10436 16.0551 6.41602 19.7451 7.65002 23.0621C8.88402 26.3791 12.5707 28.0668 15.8877 26.8334C16.1787 26.7249 16.4614 26.5953 16.7337 26.4458V22.3078C16.4572 22.6711 16.1004 22.9656 15.6912 23.1682C15.2821 23.3708 14.8316 23.4761 14.375 23.4758Z" fill="url(#paint0_linear_4453_12099)"></path>
<path d="M14.3732 17.547C14.6993 17.5469 15.0232 17.6005 15.3318 17.7057C15.0903 17.3383 14.9272 16.925 14.8527 16.4916C14.7783 16.0583 14.794 15.6142 14.899 15.1872C15.004 14.7602 15.1959 14.3595 15.4628 14.0101C15.7298 13.6607 16.0659 13.3701 16.4503 13.1566C16.8346 12.943 17.2589 12.811 17.6966 12.7689C18.1343 12.7269 18.5759 12.7755 18.9939 12.9119C19.412 13.0483 19.7973 13.2695 20.126 13.5616C20.4546 13.8538 20.7194 14.2106 20.9038 14.6097C22.1242 14.3194 23.4028 14.393 24.5818 14.8214C24.2912 11.186 21.1092 8.47438 17.4738 8.76471C13.8385 9.05504 11.1255 12.2374 11.4158 15.8727C11.4892 16.7934 11.7551 17.6885 12.1962 18.5C12.4733 18.1992 12.8099 17.9592 13.1847 17.7951C13.5594 17.6311 13.9641 17.5466 14.3732 17.547Z" fill="url(#paint1_linear_4453_12099)"></path>
<path d="M22.3922 14.4353C21.892 14.4354 21.3935 14.4939 20.9069 14.6096C21.1336 15.1032 21.231 15.6464 21.1899 16.1881C21.1487 16.7297 20.9703 17.252 20.6715 17.7056C21.1879 17.53 21.7427 17.5002 22.2749 17.6195C22.8071 17.7389 23.2961 18.0028 23.6879 18.3822C24.0798 18.7616 24.3594 19.2418 24.4959 19.7699C24.6324 20.2979 24.6205 20.8534 24.4616 21.3752C24.3027 21.897 24.0029 22.3648 23.5953 22.7271C23.1876 23.0894 22.6878 23.3323 22.151 23.4289C21.6142 23.5254 21.0612 23.472 20.5528 23.2745C20.0444 23.077 19.6003 22.743 19.2695 22.3093V26.4456C22.3635 28.1636 26.2645 27.048 27.9825 23.954C29.7005 20.86 28.5849 16.959 25.4909 15.241C24.5428 14.7146 23.4766 14.4374 22.3922 14.4353Z" fill="url(#paint2_linear_4453_12099)"></path>
</g>
<defs>
<lineargradient id="paint0_linear_4453_12099" x1="12.9537" y1="27.3201" x2="10.7464" y2="14.8014" gradientunits="userSpaceOnUse">
<stop offset="0.15" stop-color="#54C2F0"></stop>
<stop offset="0.3" stop-color="#4FBCEC"></stop>
<stop offset="0.51" stop-color="#3FACE2"></stop>
<stop offset="0.73" stop-color="#2691D0"></stop>
<stop offset="0.98" stop-color="#036BB8"></stop>
<stop offset="1" stop-color="#0068B6"></stop>
</lineargradient>
<lineargradient id="paint1_linear_4453_12099" x1="10.9638" y1="15.328" x2="23.3752" y2="10.8104" gradientunits="userSpaceOnUse">
<stop offset="0.15" stop-color="#54C2F0"></stop>
<stop offset="0.3" stop-color="#4FBCEC"></stop>
<stop offset="0.51" stop-color="#3FACE2"></stop>
<stop offset="0.73" stop-color="#2691D0"></stop>
<stop offset="0.98" stop-color="#036BB8"></stop>
<stop offset="1" stop-color="#0068B6"></stop>
</lineargradient>
<lineargradient id="paint2_linear_4453_12099" x1="25.2372" y1="15.009" x2="23.0375" y2="27.483" gradientunits="userSpaceOnUse">
<stop offset="0.15" stop-color="#54C2F0"></stop>
<stop offset="0.3" stop-color="#4FBCEC"></stop>
<stop offset="0.51" stop-color="#3FACE2"></stop>
<stop offset="0.73" stop-color="#2691D0"></stop>
<stop offset="0.98" stop-color="#036BB8"></stop>
<stop offset="1" stop-color="#0068B6"></stop>
</lineargradient>
<clippath id="clip0_4453_12099">
<rect width="36" height="36" fill="white"></rect>
</clippath>
</defs>
</symbol><symbol width="36" height="36" viewbox="0 0 36 36" fill="none" xmlns="http://www.w3.org/2000/svg" id="bank15_epost">
<g clip-path="url(#clip0_4453_11881)">
<path d="M18 36C27.9411 36 36 27.9411 36 18C36 8.05888 27.9411 0 18 0C8.05888 0 0 8.05888 0 18C0 27.9411 8.05888 36 18 36Z" fill="#FF0C00"></path>
<path d="M5.43393 17.9584C5.42122 17.9623 5.41058 17.9711 5.40433 17.9829C5.39809 17.9946 5.39674 18.0084 5.40059 18.0211C5.40269 18.0285 5.40645 18.0354 5.41159 18.0412C5.41673 18.0469 5.42311 18.0515 5.43026 18.0544L9.31826 20.6211L10.4319 15.3821L5.43393 17.9584Z" fill="white"></path>
<path d="M28.4548 15.3784H27.4712C27.4105 15.3813 27.351 15.3962 27.2962 15.4224L22.3678 17.9621C22.3218 17.9828 22.3202 18.0268 22.3628 18.0554L26.1858 20.5711C26.2382 20.601 26.2969 20.6181 26.3572 20.6208H27.3402C27.3912 20.6208 27.3968 20.5994 27.3552 20.5711L23.4535 18.0044L28.4655 15.4224C28.5108 15.4001 28.5045 15.3784 28.4548 15.3784Z" fill="white"></path>
<path d="M26.3514 15.3784H19.4994L18.3867 20.6208H25.2354C25.2874 20.6208 25.2924 20.5994 25.2504 20.5711L21.3554 18.0044L26.3594 15.4224C26.4047 15.4001 26.3994 15.3784 26.3514 15.3784Z" fill="white"></path>
<path d="M30.558 15.3784H29.575C29.5143 15.3815 29.4549 15.3964 29.4 15.4224L24.4723 17.9621C24.427 17.9828 24.4263 18.0268 24.468 18.0554L28.2913 20.5711C28.343 20.6014 28.4014 20.6185 28.4613 20.6208H29.4483C29.4987 20.6208 29.5067 20.5994 29.4627 20.5711L25.5603 18.0044L30.5707 15.4231C30.6147 15.4001 30.6103 15.3784 30.558 15.3784Z" fill="white"></path>
<path d="M26.0477 11.9519H9.92408C9.02408 11.9519 8.39475 12.5186 8.24508 13.2186C8.20553 13.3964 8.2185 13.5818 8.28241 13.7524C8.34632 13.9229 8.45843 14.0712 8.60508 14.1792L14.4017 17.9999H14.4061L26.0584 11.9909C26.1047 11.9666 26.1017 11.9519 26.0477 11.9519Z" fill="white"></path>
<path d="M23.4912 24L14.4018 18L6.98584 21.8253C6.59118 22.0587 6.29984 22.4013 6.21918 22.785C6.06851 23.485 6.45651 24.0517 7.35818 24.0517H23.4738C23.5265 24.0517 23.5352 24.0293 23.4912 24Z" fill="white"></path>
</g>
<defs>
<clippath id="clip0_4453_11881">
<rect width="36" height="36" fill="white"></rect>
</clippath>
</defs>
</symbol><symbol width="36" height="36" viewbox="0 0 36 36" fill="none" xmlns="http://www.w3.org/2000/svg" id="bank16_shinhyup">
<g clip-path="url(#clip0_4453_11799)">
<path d="M17.1843 0.018978C7.25398 0.466645 -0.433352 8.87998 0.0189811 18.8123C0.471314 28.7446 8.88265 36.428 18.8143 35.9813C28.746 35.5346 36.432 27.1146 35.981 17.185C35.53 7.25531 27.118 -0.433355 17.1843 0.018978Z" fill="#0C59FF"></path>
<path d="M26.7406 20.6459C25.7856 23.0219 24.1852 23.6899 24.1852 23.6899C28.8932 18.9192 26.0186 13.4232 26.0186 13.4232C25.3239 12.1899 26.2086 11.6542 26.2086 11.6542C24.1852 12.1579 24.8172 13.8332 24.8172 13.8332C25.8332 16.2532 25.6289 18.2196 25.2839 19.4356L24.6172 19.0619L24.6279 19.0466C24.6279 19.0466 26.2062 12.8259 19.7679 10.6442L19.7622 9.47357H18.4036V17.1819L24.7222 20.7819C24.6069 21.0161 24.4854 21.2369 24.3579 21.4442L18.0119 17.7666L11.6386 21.4442C11.5112 21.2365 11.3898 21.0157 11.2742 20.7819L17.5929 17.1819V9.4729H16.2342L16.2292 10.6436C9.79022 12.8252 11.3686 19.0459 11.3686 19.0459L11.3792 19.0612L10.7126 19.4349C10.3676 18.2186 10.1632 16.2522 11.1792 13.8326C11.1792 13.8326 11.8126 12.1586 9.78889 11.6529C9.78889 11.6529 10.6736 12.1902 9.97889 13.4219C9.97889 13.4219 7.10322 18.9192 11.8122 23.6886C11.8122 23.6886 10.2122 23.0176 9.25789 20.6446C9.25789 20.6446 8.71555 19.4869 7.19922 19.7396C7.19922 19.7396 7.77522 19.9986 8.10789 21.0476C8.10789 21.0476 9.47455 25.3952 14.7506 26.0582V28.4582H17.3416V24.9226C17.3416 24.9226 14.5932 24.9002 12.4946 22.5912L13.1462 22.2119C13.2672 22.3262 15.2622 24.1726 17.9839 24.2206H18.0156C20.7372 24.1726 22.7322 22.3262 22.8532 22.2119L23.5012 22.5912C21.4012 24.9002 18.6542 24.9226 18.6542 24.9226V28.4609H21.2462V26.0609C26.5229 25.3979 27.8889 21.0502 27.8889 21.0502C28.2249 19.9999 28.7982 19.7409 28.7982 19.7409C27.2819 19.4882 26.7406 20.6459 26.7406 20.6459ZM23.3649 18.3506L23.3599 18.3569L19.7952 16.3602L19.7759 12.0952H19.7952C19.7952 12.0952 24.0909 13.2636 23.3649 18.3506ZM16.2026 12.0952H16.2219L16.2026 16.3619L12.6379 18.3586L12.6329 18.3522C11.9056 13.2636 16.2026 12.0952 16.2026 12.0952ZM18.0089 19.3809L21.5629 21.4586V21.4652L21.5296 21.4472C20.2589 22.4509 19.0456 22.7829 17.9962 22.7829C16.9469 22.7829 15.7339 22.4496 14.4629 21.4466L14.4312 21.4646V21.4579L18.0066 19.3802L18.0089 19.3809Z" fill="white"></path>
</g>
<defs>
<clippath id="clip0_4453_11799">
<rect width="36" height="36" fill="white"></rect>
</clippath>
</defs>
</symbol><symbol width="36" height="36" viewbox="0 0 36 36" fill="none" xmlns="http://www.w3.org/2000/svg" id="bank17_sbi">
<g clip-path="url(#clip0_4453_12107)">
<path d="M17.1843 0.018978C7.25398 0.466645 -0.433352 8.87998 0.0189811 18.8123C0.471314 28.7446 8.88265 36.428 18.8143 35.9813C28.746 35.5346 36.432 27.1146 35.981 17.185C35.53 7.25531 27.118 -0.433355 17.1843 0.018978Z" fill="#005EA1"></path>
<path d="M11.2008 21.6823C11.0438 22.5413 11.4835 22.8157 12.2468 22.8157C12.7875 22.8157 13.3945 22.6113 13.5162 22.069C13.6602 21.426 12.7048 21.3023 11.7775 21.0057C10.8608 20.7097 9.93417 20.239 10.2375 18.8997C10.5975 17.3047 12.2532 16.6807 13.5492 16.6807C14.9158 16.6807 16.1412 17.386 15.7778 19.0333H13.9835C14.1628 18.369 13.6235 18.1537 13.0718 18.1537C12.6852 18.1537 12.1718 18.2977 12.0638 18.777C11.9365 19.3393 12.9078 19.4437 13.8438 19.739C14.7798 20.0343 15.6648 20.5267 15.3648 21.8457C14.9445 23.6953 13.3238 24.2893 11.8082 24.2893C10.2242 24.2893 8.9915 23.5527 9.40484 21.6823H11.2008Z" fill="white"></path>
<path d="M23.628 16.8359H25.4237L23.7693 24.1353H21.9727L23.628 16.8359Z" fill="white"></path>
<path d="M17.0831 16.8361H20.3044C21.4974 16.8157 22.7264 17.1421 22.3808 18.6664C22.2334 19.3201 21.7451 19.8527 21.1398 20.1381C21.8228 20.3624 22.1238 21.0381 21.9358 21.8661C21.5421 23.6041 20.2151 24.1354 18.7378 24.1354H15.4258L17.0831 16.8361ZM18.2271 19.7087H19.6168C19.9264 19.7087 20.3901 19.5344 20.5081 19.0134C20.6261 18.4924 20.3118 18.3077 19.9321 18.3077H18.5448L18.2271 19.7087ZM17.5671 22.6127H19.0071C19.5774 22.6127 20.0208 22.3967 20.1591 21.7947C20.3031 21.1504 19.9288 20.9357 19.3881 20.9357H17.9481L17.5671 22.6127Z" fill="white"></path>
<path d="M27.9321 13.9033C26.9391 11.2666 21.2591 10.9666 15.2471 13.2309C10.9595 14.8459 7.66214 17.3309 6.48047 19.5789C8.11214 17.8749 10.7471 16.2009 13.9268 15.0019C19.9395 12.7369 25.6188 13.0386 26.6108 15.6753C26.8988 16.4313 26.7641 17.2973 26.2898 18.2023C27.7428 16.6853 28.3995 15.1453 27.9315 13.9023" fill="#EE303C"></path>
</g>
<defs>
<clippath id="clip0_4453_12107">
<rect width="36" height="36" fill="white"></rect>
</clippath>
</defs>
</symbol><symbol width="36" height="36" viewbox="0 0 36 36" fill="none" xmlns="http://www.w3.org/2000/svg" id="bank18_kakao">
<g clip-path="url(#clip0_4453_11920)">
<path d="M18 36C27.9411 36 36 27.9411 36 18C36 8.05888 27.9411 0 18 0C8.05888 0 0 8.05888 0 18C0 27.9411 8.05888 36 18 36Z" fill="#FFE300"></path>
<path d="M23.0951 18C23.9764 17.4203 24.6474 16.5719 25.0082 15.5806C25.369 14.5894 25.4006 13.5082 25.0982 12.4976C24.7957 11.487 24.1754 10.6008 23.3294 9.97075C22.4833 9.34067 21.4567 9.00024 20.4018 9H12.1821C12.1449 8.99991 12.1081 9.00715 12.0738 9.02129C12.0394 9.03543 12.0081 9.0562 11.9818 9.08242C11.9555 9.10863 11.9345 9.13978 11.9202 9.17409C11.9059 9.20839 11.8985 9.24517 11.8984 9.28233V26.7157C11.8984 26.7913 11.9282 26.8639 11.9813 26.9178C12.0343 26.9717 12.1065 27.0025 12.1821 27.0037H20.4018C21.4567 27.0036 22.4836 26.6634 23.3298 26.0334C24.176 25.4034 24.7965 24.5172 25.099 23.5066C25.4016 22.4959 25.3701 21.4146 25.0093 20.4233C24.6485 19.4319 23.9775 18.5834 23.0961 18.0037L23.0951 18ZM19.0618 22.096H17.5171V13.904H19.0608L19.0618 22.096Z" fill="#1E1E1E"></path>
</g>
<defs>
<clippath id="clip0_4453_11920">
<rect width="36" height="36" fill="white"></rect>
</clippath>
</defs>
</symbol><symbol width="36" height="36" viewbox="0 0 36 36" fill="none" xmlns="http://www.w3.org/2000/svg" id="bank19_toss">
<g clip-path="url(#clip0_4453_11938)">
<path d="M17.1843 0.018978C7.25398 0.466645 -0.433352 8.87998 0.0189811 18.8123C0.471314 28.7446 8.88265 36.428 18.8143 35.9813C28.746 35.5346 36.432 27.1146 35.981 17.185C35.53 7.25531 27.118 -0.433355 17.1843 0.018978Z" fill="#0064FF"></path>
<path fill-rule="evenodd" clip-rule="evenodd" d="M19.2667 10.1121H19.163C11.2767 10.1121 9 19.4721 9 23.8841L12.4963 21.8111C13.814 24.2411 16.352 25.8877 19.263 25.8877C23.5383 25.8887 27 22.3571 27 18.0001C27 13.6431 23.5383 10.1121 19.2667 10.1121Z" fill="white"></path>
</g>
<defs>
<clippath id="clip0_4453_11938">
<rect width="36" height="36" fill="white"></rect>
</clippath>
</defs>
</symbol><symbol width="36" height="36" viewbox="0 0 36 36" fill="none" xmlns="http://www.w3.org/2000/svg" id="bank20_kbank">
<g clip-path="url(#clip0_4453_11923)">
<path d="M17.1843 0.018978C7.25398 0.466645 -0.433352 8.87998 0.0189811 18.8123C0.471314 28.7446 8.88265 36.428 18.8143 35.9813C28.746 35.5346 36.432 27.1146 35.981 17.185C35.53 7.25531 27.118 -0.433355 17.1843 0.018978Z" fill="#140064"></path>
<path d="M10.5241 14.8853H9.00644L6.6101 17.6753V14.8853H5.39844V20.9723H6.6101V18.1749L9.08577 20.9723H10.6034L7.90977 17.9289L10.5241 14.8853Z" fill="white"></path>
<path d="M30.6003 20.9723L28.7799 18.8669L30.5456 16.7616H29.2393L27.6999 18.5833V14.8853H26.4883V20.9723H27.6999V19.1456L29.2683 20.9723H30.6003Z" fill="white"></path>
<path d="M13.5088 16.6133C12.9998 16.6133 12.5648 16.8293 12.2071 17.1339V14.8853H10.9961V18.8943C10.9961 20.1009 11.7944 21.1113 13.2961 21.1113C14.6468 21.1113 15.6001 20.1779 15.6001 18.8713C15.5968 17.6333 14.7794 16.6133 13.5088 16.6133ZM13.2928 20.0133C12.9928 20.0134 12.7045 19.8964 12.4894 19.6874C12.2743 19.4783 12.1492 19.1935 12.1408 18.8936V18.8603C12.1408 18.6324 12.2083 18.4097 12.3349 18.2202C12.4615 18.0308 12.6414 17.8831 12.8519 17.7959C13.0624 17.7088 13.294 17.6859 13.5175 17.7304C13.741 17.7748 13.9462 17.8846 14.1073 18.0457C14.2685 18.2068 14.3782 18.412 14.4226 18.6355C14.4671 18.859 14.4443 19.0906 14.3571 19.3011C14.2699 19.5116 14.1222 19.6915 13.9328 19.8181C13.7433 19.9447 13.5206 20.0123 13.2928 20.0123V20.0133Z" fill="white"></path>
<path d="M24.1594 16.6134C23.6427 16.6071 23.143 16.7978 22.7618 17.1468V16.7468H21.5508V20.9744H22.7618V18.6038C22.7695 18.3721 22.867 18.1524 23.0337 17.9913C23.2003 17.8301 23.4231 17.74 23.6549 17.74C23.8868 17.74 24.1096 17.8301 24.2762 17.9913C24.4429 18.1524 24.5404 18.3721 24.5481 18.6038V20.9744H25.7678V18.2164C25.7648 17.7913 25.5942 17.3845 25.2931 17.0844C24.992 16.7842 24.5846 16.615 24.1594 16.6134Z" fill="white"></path>
<path d="M18.4936 16.6169C17.127 16.6169 16.168 17.5529 16.168 18.8569C16.168 20.0939 16.9946 21.1149 18.279 21.1149C18.5593 21.1106 18.835 21.043 19.0856 20.9173C19.3362 20.7916 19.5552 20.611 19.7263 20.3889V20.9743H20.822V18.8576H20.812L20.822 18.8339C20.82 17.6273 20.0143 16.6169 18.4936 16.6169ZM18.5196 20.0083C18.2918 20.0083 18.0691 19.9407 17.8796 19.8141C17.6902 19.6875 17.5425 19.5076 17.4553 19.2971C17.3681 19.0866 17.3453 18.855 17.3898 18.6315C17.4342 18.4081 17.5439 18.2028 17.705 18.0417C17.8662 17.8806 18.0714 17.7709 18.2949 17.7264C18.5184 17.682 18.75 17.7048 18.9605 17.792C19.171 17.8792 19.3509 18.0268 19.4775 18.2163C19.6041 18.4057 19.6716 18.6284 19.6716 18.8563C19.6716 19.1618 19.5503 19.4548 19.3342 19.6709C19.1182 19.8869 18.8252 20.0083 18.5196 20.0083Z" fill="white"></path>
</g>
<defs>
<clippath id="clip0_4453_11923">
<rect width="36" height="36" fill="white"></rect>
</clippath>
</defs>
</symbol>
</svg>