<svg width="14" height="14" viewBox="0 0 14 14" fill="none" xmlns="http://www.w3.org/2000/svg">
<path d="M9.41075 2.48618L10.4623 1.4354C10.7411 1.15662 11.1192 1 11.5134 1C11.9077 1 12.2858 1.15662 12.5646 1.4354C12.8434 1.71419 13 2.0923 13 2.48656C13 2.88082 12.8434 3.25893 12.5646 3.53772L11.5138 4.58925M9.41075 2.48618L3.23507 8.66187C2.45129 9.44639 2.05903 9.8379 1.79202 10.3157C1.52502 10.7934 1.25651 11.9207 1 13C2.07853 12.7435 3.20657 12.475 3.68433 12.208C4.1621 11.941 4.55436 11.5487 5.33813 10.7649L11.5138 4.58925M9.41075 2.48618L11.5138 4.58925M6.25016 13H10.7503" stroke="#B2B1B6" stroke-linecap="round" stroke-linejoin="round"/>
</svg>
