<svg width="36" height="36" viewBox="0 0 36 36" fill="none" xmlns="http://www.w3.org/2000/svg">
<rect opacity="0.24" width="36" height="36" rx="8" fill="#56555A"/>
<path fill-rule="evenodd" clip-rule="evenodd" d="M23.25 10.5H12.75C12.1533 10.5 11.581 10.7371 11.159 11.159C10.7371 11.581 10.5 12.1533 10.5 12.75V20.2905L11.943 19.2405C12.3971 18.9106 12.9449 18.7349 13.5062 18.7392C14.0675 18.7435 14.6126 18.9276 15.0615 19.2645L16.4535 20.3085L20.0055 17.2635C20.4938 16.8453 21.1187 16.6208 21.7615 16.6327C22.4043 16.6446 23.0205 16.892 23.493 17.328L25.5 19.1805V12.75C25.5 12.1533 25.2629 11.581 24.841 11.159C24.419 10.7371 23.8467 10.5 23.25 10.5ZM27.75 21.747V12.75C27.75 11.5565 27.2759 10.4119 26.432 9.56802C25.5881 8.72411 24.4435 8.25 23.25 8.25H12.75C11.5565 8.25 10.4119 8.72411 9.56802 9.56802C8.72411 10.4119 8.25 11.5565 8.25 12.75V23.25C8.25 24.4435 8.72411 25.5881 9.56802 26.432C10.4119 27.2759 11.5565 27.75 12.75 27.75H23.25C24.4435 27.75 25.5881 27.2759 26.432 26.432C27.2759 25.5881 27.75 24.4435 27.75 23.25V21.747ZM25.5 22.242L21.9675 18.981C21.9 18.9188 21.812 18.8835 21.7202 18.8819C21.6284 18.8802 21.5392 18.9123 21.4695 18.972L17.232 22.605L16.5465 23.193L15.825 22.6515L13.71 21.066C13.646 21.0183 13.5684 20.9923 13.4885 20.9917C13.4086 20.9912 13.3307 21.0162 13.266 21.063L10.5 23.0715V23.25C10.5 23.8467 10.7371 24.419 11.159 24.841C11.581 25.2629 12.1533 25.5 12.75 25.5H23.25C23.8467 25.5 24.419 25.2629 24.841 24.841C25.2629 24.419 25.5 23.8467 25.5 23.25V22.242ZM17.25 15C17.25 15.5967 17.0129 16.169 16.591 16.591C16.169 17.0129 15.5967 17.25 15 17.25C14.4033 17.25 13.831 17.0129 13.409 16.591C12.9871 16.169 12.75 15.5967 12.75 15C12.75 14.4033 12.9871 13.831 13.409 13.409C13.831 12.9871 14.4033 12.75 15 12.75C15.5967 12.75 16.169 12.9871 16.591 13.409C17.0129 13.831 17.25 14.4033 17.25 15Z" fill="white"/>
</svg>
