<svg width="24" height="25" viewBox="0 0 24 25" fill="none" xmlns="http://www.w3.org/2000/svg">
<g clip-path="url(#clip0_4303_11444)">
<path d="M12 15.5C13.6569 15.5 15 14.1569 15 12.5C15 10.8431 13.6569 9.5 12 9.5C10.3431 9.5 9 10.8431 9 12.5C9 14.1569 10.3431 15.5 12 15.5Z" stroke="#56555A" stroke-width="2" stroke-linecap="round" stroke-linejoin="round"/>
<path d="M19.4 15.5C19.2669 15.8016 19.2272 16.1362 19.286 16.4606C19.3448 16.785 19.4995 17.0843 19.73 17.32L19.79 17.38C19.976 17.5657 20.1235 17.7863 20.2241 18.0291C20.3248 18.2719 20.3766 18.5322 20.3766 18.795C20.3766 19.0578 20.3248 19.3181 20.2241 19.5609C20.1235 19.8037 19.976 20.0243 19.79 20.21C19.6043 20.396 19.3837 20.5435 19.1409 20.6441C18.8981 20.7448 18.6378 20.7966 18.375 20.7966C18.1122 20.7966 17.8519 20.7448 17.6091 20.6441C17.3663 20.5435 17.1457 20.396 16.96 20.21L16.9 20.15C16.6643 19.9195 16.365 19.7648 16.0406 19.706C15.7162 19.6472 15.3816 19.6869 15.08 19.82C14.7842 19.9468 14.532 20.1572 14.3543 20.4255C14.1766 20.6938 14.0813 21.0082 14.08 21.33V21.5C14.08 22.0304 13.8693 22.5391 13.4942 22.9142C13.1191 23.2893 12.6104 23.5 12.08 23.5C11.5496 23.5 11.0409 23.2893 10.6658 22.9142C10.2907 22.5391 10.08 22.0304 10.08 21.5V21.41C10.0723 21.079 9.96512 20.758 9.77251 20.4887C9.5799 20.2194 9.31074 20.0143 9 19.9C8.69838 19.7669 8.36381 19.7272 8.03941 19.786C7.71502 19.8448 7.41568 19.9995 7.18 20.23L7.12 20.29C6.93425 20.476 6.71368 20.6235 6.47088 20.7241C6.22808 20.8248 5.96783 20.8766 5.705 20.8766C5.44217 20.8766 5.18192 20.8248 4.93912 20.7241C4.69632 20.6235 4.47575 20.476 4.29 20.29C4.10405 20.1043 3.95653 19.8837 3.85588 19.6409C3.75523 19.3981 3.70343 19.1378 3.70343 18.875C3.70343 18.6122 3.75523 18.3519 3.85588 18.1091C3.95653 17.8663 4.10405 17.6457 4.29 17.46L4.35 17.4C4.58054 17.1643 4.73519 16.865 4.794 16.5406C4.85282 16.2162 4.81312 15.8816 4.68 15.58C4.55324 15.2842 4.34276 15.032 4.07447 14.8543C3.80618 14.6766 3.49179 14.5813 3.17 14.58H3C2.46957 14.58 1.96086 14.3693 1.58579 13.9942C1.21071 13.6191 1 13.1104 1 12.58C1 12.0496 1.21071 11.5409 1.58579 11.1658C1.96086 10.7907 2.46957 10.58 3 10.58H3.09C3.42099 10.5723 3.742 10.4651 4.0113 10.2725C4.28059 10.0799 4.48572 9.81074 4.6 9.5C4.73312 9.19838 4.77282 8.86381 4.714 8.53941C4.65519 8.21502 4.50054 7.91568 4.27 7.68L4.21 7.62C4.02405 7.43425 3.87653 7.21368 3.77588 6.97088C3.67523 6.72808 3.62343 6.46783 3.62343 6.205C3.62343 5.94217 3.67523 5.68192 3.77588 5.43912C3.87653 5.19632 4.02405 4.97575 4.21 4.79C4.39575 4.60405 4.61632 4.45653 4.85912 4.35588C5.10192 4.25523 5.36217 4.20343 5.625 4.20343C5.88783 4.20343 6.14808 4.25523 6.39088 4.35588C6.63368 4.45653 6.85425 4.60405 7.04 4.79L7.1 4.85C7.33568 5.08054 7.63502 5.23519 7.95941 5.294C8.28381 5.35282 8.61838 5.31312 8.92 5.18H9C9.29577 5.05324 9.54802 4.84276 9.72569 4.57447C9.90337 4.30618 9.99872 3.99179 10 3.67V3.5C10 2.96957 10.2107 2.46086 10.5858 2.08579C10.9609 1.71071 11.4696 1.5 12 1.5C12.5304 1.5 13.0391 1.71071 13.4142 2.08579C13.7893 2.46086 14 2.96957 14 3.5V3.59C14.0013 3.91179 14.0966 4.22618 14.2743 4.49447C14.452 4.76276 14.7042 4.97324 15 5.1C15.3016 5.23312 15.6362 5.27282 15.9606 5.214C16.285 5.15519 16.5843 5.00054 16.82 4.77L16.88 4.71C17.0657 4.52405 17.2863 4.37653 17.5291 4.27588C17.7719 4.17523 18.0322 4.12343 18.295 4.12343C18.5578 4.12343 18.8181 4.17523 19.0609 4.27588C19.3037 4.37653 19.5243 4.52405 19.71 4.71C19.896 4.89575 20.0435 5.11632 20.1441 5.35912C20.2448 5.60192 20.2966 5.86217 20.2966 6.125C20.2966 6.38783 20.2448 6.64808 20.1441 6.89088C20.0435 7.13368 19.896 7.35425 19.71 7.54L19.65 7.6C19.4195 7.83568 19.2648 8.13502 19.206 8.45941C19.1472 8.78381 19.1869 9.11838 19.32 9.42V9.5C19.4468 9.79577 19.6572 10.048 19.9255 10.2257C20.1938 10.4034 20.5082 10.4987 20.83 10.5H21C21.5304 10.5 22.0391 10.7107 22.4142 11.0858C22.7893 11.4609 23 11.9696 23 12.5C23 13.0304 22.7893 13.5391 22.4142 13.9142C22.0391 14.2893 21.5304 14.5 21 14.5H20.91C20.5882 14.5013 20.2738 14.5966 20.0055 14.7743C19.7372 14.952 19.5268 15.2042 19.4 15.5Z" stroke="#56555A" stroke-width="2" stroke-linecap="round" stroke-linejoin="round"/>
</g>
<defs>
<clipPath id="clip0_4303_11444">
<rect width="24" height="24" fill="white" transform="translate(0 0.5)"/>
</clipPath>
</defs>
</svg>
