<svg width="13" height="14" viewBox="0 0 13 14" fill="none" xmlns="http://www.w3.org/2000/svg">
<path d="M5.13636 2.33333H7.86364C7.86364 1.94656 7.71997 1.57563 7.46424 1.30214C7.20851 1.02865 6.86166 0.875 6.5 0.875C6.13834 0.875 5.7915 1.02865 5.53576 1.30214C5.28003 1.57563 5.13636 1.94656 5.13636 2.33333ZM4.31818 2.33333C4.31818 1.71449 4.54805 1.121 4.95722 0.683418C5.36639 0.245833 5.92135 0 6.5 0C7.07865 0 7.63361 0.245833 8.04278 0.683418C8.45195 1.121 8.68182 1.71449 8.68182 2.33333H12.0909C12.1994 2.33333 12.3035 2.37943 12.3802 2.46147C12.4569 2.54352 12.5 2.6548 12.5 2.77083C12.5 2.88687 12.4569 2.99815 12.3802 3.08019C12.3035 3.16224 12.1994 3.20833 12.0909 3.20833H11.3764L10.7125 11.7267C10.6643 12.3464 10.4 12.9241 9.97209 13.3452C9.54422 13.7662 8.98401 14 8.40255 14H4.59745C4.016 14 3.45578 13.7662 3.02791 13.3452C2.60004 12.9241 2.33575 12.3464 2.28745 11.7267L1.62364 3.20833H0.909091C0.800593 3.20833 0.696539 3.16224 0.61982 3.08019C0.5431 2.99815 0.5 2.88687 0.5 2.77083C0.5 2.6548 0.5431 2.54352 0.61982 2.46147C0.696539 2.37943 0.800593 2.33333 0.909091 2.33333H4.31818ZM5.68182 5.6875C5.68182 5.57147 5.63872 5.46019 5.562 5.37814C5.48528 5.29609 5.38123 5.25 5.27273 5.25C5.16423 5.25 5.06018 5.29609 4.98346 5.37814C4.90674 5.46019 4.86364 5.57147 4.86364 5.6875V10.6458C4.86364 10.7619 4.90674 10.8731 4.98346 10.9552C5.06018 11.0372 5.16423 11.0833 5.27273 11.0833C5.38123 11.0833 5.48528 11.0372 5.562 10.9552C5.63872 10.8731 5.68182 10.7619 5.68182 10.6458V5.6875ZM7.72727 5.25C7.61878 5.25 7.51472 5.29609 7.438 5.37814C7.36128 5.46019 7.31818 5.57147 7.31818 5.6875V10.6458C7.31818 10.7619 7.36128 10.8731 7.438 10.9552C7.51472 11.0372 7.61878 11.0833 7.72727 11.0833C7.83577 11.0833 7.93982 11.0372 8.01654 10.9552C8.09326 10.8731 8.13636 10.7619 8.13636 10.6458V5.6875C8.13636 5.57147 8.09326 5.46019 8.01654 5.37814C7.93982 5.29609 7.83577 5.25 7.72727 5.25Z" fill="#56555A"/>
</svg>
